<svg width="33" height="35" viewBox="0 0 33 35" fill="none" xmlns="http://www.w3.org/2000/svg">
<path d="M26.0758 7.93068C25.647 6.33028 24.014 5.38747 20.748 3.50185C17.482 1.61624 15.849 0.673426 14.2486 1.10225C12.6482 1.53108 11.7054 3.16407 9.8198 6.43006L23.6762 14.4301C25.5618 11.1641 26.5046 9.53108 26.0758 7.93068Z" fill="#FFE500"/>
<path d="M12.0624 31.0397L11.6985 30.1083L12.0624 31.0397ZM3.94957 32.5976L3.44957 33.4636H3.44957L3.94957 32.5976ZM1.24233 24.7928L0.25373 24.9433L1.24233 24.7928ZM2.22292 19.5882L3.08895 20.0882L2.22292 19.5882ZM1.05463 22.0628L0.071916 21.8776H0.071916L1.05463 22.0628ZM16.0793 27.5882L16.9454 28.0882L16.0793 27.5882ZM14.5205 29.8373L15.1722 30.5957L14.5205 29.8373ZM9.8198 6.43006L8.95377 5.93006L9.8198 6.43006ZM31.8198 34.5019C32.3721 34.5019 32.8198 34.0541 32.8198 33.5019C32.8198 32.9496 32.3721 32.5019 31.8198 32.5019V34.5019ZM19.8198 32.5019C19.2675 32.5019 18.8198 32.9496 18.8198 33.5019C18.8198 34.0541 19.2675 34.5019 19.8198 34.5019V32.5019ZM22.8102 13.9301L15.2133 27.0882L16.9454 28.0882L24.5422 14.9301L22.8102 13.9301ZM3.08895 20.0882L10.6858 6.93006L8.95377 5.93006L1.3569 19.0882L3.08895 20.0882ZM11.6985 30.1083C9.52007 30.9594 7.98706 31.5557 6.79084 31.8351C5.62076 32.1085 4.96598 32.0297 4.44957 31.7316L3.44957 33.4636C4.59808 34.1267 5.85042 34.1087 7.24586 33.7827C8.61516 33.4628 10.3061 32.7995 12.4263 31.9712L11.6985 30.1083ZM0.25373 24.9433C0.596459 27.1936 0.867511 28.9897 1.2751 30.3355C1.69048 31.707 2.30105 32.8005 3.44957 33.4636L4.44957 31.7316C3.93315 31.4334 3.53754 30.9058 3.18924 29.7558C2.83317 28.5801 2.58307 26.9543 2.23093 24.6422L0.25373 24.9433ZM1.3569 19.0882C0.696211 20.2326 0.236861 21.0022 0.071916 21.8776L2.03734 22.2479C2.12465 21.7845 2.36008 21.3507 3.08895 20.0882L1.3569 19.0882ZM2.23093 24.6422C2.01144 23.2011 1.95002 22.7113 2.03734 22.2479L0.071916 21.8776C-0.0930284 22.7531 0.0547736 23.637 0.25373 24.9433L2.23093 24.6422ZM15.2133 27.0882C14.4844 28.3507 14.2265 28.7715 13.8688 29.0788L15.1722 30.5957C15.8479 30.0152 16.2847 29.2326 16.9454 28.0882L15.2133 27.0882ZM12.4263 31.9712C13.657 31.4903 14.4965 31.1763 15.1722 30.5957L13.8688 29.0788C13.5111 29.3861 13.0563 29.5778 11.6985 30.1083L12.4263 31.9712ZM20.248 4.36788C21.9055 5.32482 23.0604 5.99407 23.8649 6.6149C24.6464 7.218 24.9748 7.68541 25.1099 8.1895L27.0417 7.67186C26.748 6.57555 26.0455 5.77135 25.0868 5.03154C24.1511 4.30947 22.8565 3.5645 21.248 2.63583L20.248 4.36788ZM24.5422 14.9301C25.4709 13.3215 26.2195 12.0291 26.6688 10.9359C27.1292 9.81588 27.3355 8.76817 27.0417 7.67186L25.1099 8.1895C25.2449 8.69359 25.1943 9.26257 24.819 10.1756C24.4327 11.1155 23.7671 12.2726 22.8102 13.9301L24.5422 14.9301ZM21.248 2.63583C19.6395 1.70715 18.347 0.95851 17.2539 0.509209C16.1338 0.048875 15.0861 -0.15743 13.9898 0.136326L14.5074 2.06818C15.0115 1.93311 15.5805 1.98379 16.4936 2.35906C17.4335 2.74537 18.5905 3.41093 20.248 4.36788L21.248 2.63583ZM10.6858 6.93006C11.6428 5.27258 12.312 4.11766 12.9328 3.31316C13.5359 2.53163 14.0034 2.20325 14.5074 2.06818L13.9898 0.136326C12.8935 0.430081 12.0893 1.1326 11.3495 2.09128C10.6274 3.02698 9.88245 4.32155 8.95377 5.93006L10.6858 6.93006ZM24.1762 13.564L10.3198 5.56403L9.3198 7.29608L23.1762 15.2961L24.1762 13.564ZM31.8198 32.5019H19.8198V34.5019H31.8198V32.5019Z" fill="#2D264B"/>
</svg>
