<svg width="340" height="127" viewBox="0 0 340 127" fill="none" xmlns="http://www.w3.org/2000/svg">
<path d="M335 63C335 76.8071 323.807 88 310 88C296.193 88 285 76.8071 285 63C285 49.1929 296.193 38 310 38C323.807 38 335 49.1929 335 63Z" stroke="#2D264B" stroke-width="2" stroke-linecap="round"/>
<path d="M322.5 55.5L314.077 64.9079C310.739 68.636 309.071 70.5 306.875 70.5C304.679 70.5 303.011 68.636 299.673 64.9079L297.5 62.4809" stroke="#FFE500" stroke-width="2.5" stroke-linecap="round"/>
<path d="M193.89 50.0711C193.89 48 192.223 46.3333 188.89 43C185.557 39.6667 183.89 38 181.819 38C179.748 38 178.081 39.6667 174.748 43L188.89 57.1421C192.223 53.8088 193.89 52.1421 193.89 50.0711Z" fill="#FFE500"/>
<path d="M150.153 83.541L150.74 82.732H150.74L150.153 83.541ZM147.387 80.7756L146.578 81.3634L147.387 80.7756ZM184.847 83.541L184.26 82.732L184.847 83.541ZM187.613 80.7756L186.804 80.1878L187.613 80.7756ZM147.387 46.081L146.578 45.4932H146.578L147.387 46.081ZM150.153 43.3156L150.74 44.1246L150.153 43.3156ZM162.512 41.9462C163.064 41.9396 163.507 41.4866 163.5 40.9343C163.493 40.3821 163.04 39.9397 162.488 39.9464L162.512 41.9462ZM190.982 68.4403C190.989 67.888 190.546 67.435 189.994 67.4284C189.442 67.4217 188.989 67.864 188.982 68.4163L190.982 68.4403ZM169.494 73.4394L169.383 72.4455L169.494 73.4394ZM159.194 72.6957L158.487 73.4028H158.487L159.194 72.6957ZM158.451 62.3963L159.445 62.5067L158.451 62.3963ZM161.319 56.4295L160.611 55.7224L161.319 56.4295ZM159.107 59.0393L158.206 58.6061L159.107 59.0393ZM175.461 70.5716L176.168 71.2787L175.461 70.5716ZM172.851 72.7828L173.284 73.6841H173.284L172.851 72.7828ZM167.5 84.9283C162.791 84.9283 159.339 84.9269 156.651 84.6357C153.982 84.3465 152.184 83.7811 150.74 82.732L149.565 84.35C151.407 85.6881 153.596 86.3164 156.435 86.624C159.256 86.9296 162.835 86.9283 167.5 86.9283V84.9283ZM144 63.4283C144 68.0932 143.999 71.6722 144.304 74.4928C144.612 77.3322 145.24 79.5216 146.578 81.3634L148.196 80.1878C147.147 78.7438 146.582 76.9466 146.293 74.2774C146.001 71.5895 146 68.1377 146 63.4283H144ZM150.74 82.732C149.764 82.0227 148.906 81.1641 148.196 80.1878L146.578 81.3634C147.411 82.5095 148.419 83.5173 149.565 84.35L150.74 82.732ZM167.5 86.9283C172.165 86.9283 175.744 86.9296 178.565 86.624C181.404 86.3164 183.593 85.6881 185.435 84.35L184.26 82.732C182.815 83.7811 181.018 84.3465 178.349 84.6357C175.661 84.9269 172.209 84.9283 167.5 84.9283V86.9283ZM186.804 80.1878C186.094 81.1641 185.236 82.0227 184.26 82.732L185.435 84.35C186.581 83.5173 187.589 82.5095 188.422 81.3634L186.804 80.1878ZM146 63.4283C146 58.7188 146.001 55.2671 146.293 52.5791C146.582 49.9099 147.147 48.1128 148.196 46.6687L146.578 45.4932C145.24 47.335 144.612 49.5243 144.304 52.3637C143.999 55.1844 144 58.7634 144 63.4283H146ZM149.565 42.5065C148.419 43.3392 147.411 44.3471 146.578 45.4932L148.196 46.6687C148.906 45.6925 149.764 44.8339 150.74 44.1246L149.565 42.5065ZM162.488 39.9464C156.378 40.0196 152.502 40.3723 149.565 42.5065L150.74 44.1246C153.086 42.4208 156.303 42.0206 162.512 41.9462L162.488 39.9464ZM188.982 68.4163C188.908 74.625 188.507 77.8427 186.804 80.1878L188.422 81.3634C190.556 78.4258 190.909 74.5499 190.982 68.4403L188.982 68.4163ZM188.183 56.435L174.754 69.8645L176.168 71.2787L189.597 57.8492L188.183 56.435ZM162.026 57.1366L175.455 43.7071L174.041 42.2929L160.611 55.7224L162.026 57.1366ZM169.383 72.4455C166.486 72.7675 164.421 72.9945 162.864 72.9442C161.333 72.8948 160.493 72.5802 159.902 71.9886L158.487 73.4028C159.595 74.5105 161.038 74.8863 162.799 74.9432C164.534 74.9992 166.769 74.7484 169.604 74.4333L169.383 72.4455ZM157.457 62.2858C157.142 65.1215 156.891 67.3565 156.947 69.0911C157.004 70.8525 157.38 72.2951 158.487 73.4028L159.902 71.9886C159.31 71.397 158.995 70.5567 158.946 69.0265C158.896 67.4696 159.123 65.4045 159.445 62.5067L157.457 62.2858ZM160.611 55.7224C159.431 56.9024 158.666 57.6497 158.206 58.6061L160.009 59.4725C160.287 58.894 160.749 58.413 162.026 57.1366L160.611 55.7224ZM159.445 62.5067C159.644 60.7126 159.731 60.051 160.009 59.4725L158.206 58.6061C157.746 59.5625 157.641 60.6273 157.457 62.2858L159.445 62.5067ZM174.754 69.8645C173.477 71.141 172.996 71.6035 172.418 71.8815L173.284 73.6841C174.24 73.2244 174.988 72.4587 176.168 71.2787L174.754 69.8645ZM169.604 74.4333C171.263 74.249 172.328 74.1438 173.284 73.6841L172.418 71.8815C171.839 72.1596 171.178 72.2462 169.383 72.4455L169.604 74.4333ZM188.183 43.7071C189.87 45.3938 191.062 46.5891 191.845 47.6155C192.611 48.6187 192.89 49.3421 192.89 50.0711H194.89C194.89 48.729 194.336 47.5835 193.435 46.4023C192.552 45.2442 191.244 43.9396 189.597 42.2929L188.183 43.7071ZM189.597 57.8492C191.244 56.2026 192.552 54.8979 193.435 53.7398C194.336 52.5587 194.89 51.4132 194.89 50.0711H192.89C192.89 50.8 192.611 51.5234 191.845 52.5267C191.062 53.553 189.87 54.7484 188.183 56.435L189.597 57.8492ZM189.597 42.2929C187.951 40.6462 186.646 39.3386 185.488 38.455C184.307 37.5538 183.161 37 181.819 37V39C182.548 39 183.271 39.2796 184.275 40.045C185.301 40.8281 186.496 42.0204 188.183 43.7071L189.597 42.2929ZM175.455 43.7071C177.142 42.0204 178.337 40.8281 179.363 40.045C180.367 39.2796 181.09 39 181.819 39V37C180.477 37 179.331 37.5538 178.15 38.455C176.992 39.3386 175.688 40.6462 174.041 42.2929L175.455 43.7071ZM189.597 56.435L175.455 42.2929L174.041 43.7071L188.183 57.8492L189.597 56.435Z" fill="#2D264B"/>
<path d="M12.6527 83.1127L13.2405 82.3037L12.6527 83.1127ZM9.88729 80.3473L9.07827 80.9351L9.88729 80.3473ZM50.1127 80.3473L49.3037 79.7595L50.1127 80.3473ZM47.3473 83.1127L46.7595 82.3037L47.3473 83.1127ZM47.3473 42.8873L46.7595 43.6963L47.3473 42.8873ZM50.1127 45.6527L49.3037 46.2405L50.1127 45.6527ZM12.6527 42.8873L13.2405 43.6963L12.6527 42.8873ZM9.88729 45.6527L10.6963 46.2405L9.88729 45.6527ZM10.5491 79.4018L9.6547 78.9545H9.6547L10.5491 79.4018ZM28.75 70.5L29.0487 69.5457L28.9981 69.5298L28.9461 69.5194L28.75 70.5ZM22.8952 69.6325L22.9164 70.6323H22.9164L22.8952 69.6325ZM13.4588 74.2477L12.6827 73.6171L13.4588 74.2477ZM29.1817 72.4285L28.3112 71.9364L29.1817 72.4285ZM21.6294 83.7579C21.3577 84.2387 21.5271 84.8488 22.0079 85.1206C22.4887 85.3923 23.0988 85.2229 23.3706 84.7421L21.6294 83.7579ZM48.7765 65.7754L49.3555 64.96L48.7765 65.7754ZM31.8394 68.084L31.0633 67.4534L31.8394 68.084ZM10.2746 79.9509L11.1351 80.4602L11.1532 80.4297L11.169 80.3981L10.2746 79.9509ZM21.5 55.5C21.5 58.8137 24.1863 61.5 27.5 61.5V59.5C25.2909 59.5 23.5 57.7091 23.5 55.5H21.5ZM27.5 61.5C30.8137 61.5 33.5 58.8137 33.5 55.5H31.5C31.5 57.7091 29.7091 59.5 27.5 59.5V61.5ZM33.5 55.5C33.5 52.1863 30.8137 49.5 27.5 49.5V51.5C29.7091 51.5 31.5 53.2909 31.5 55.5H33.5ZM27.5 49.5C24.1863 49.5 21.5 52.1863 21.5 55.5H23.5C23.5 53.2909 25.2909 51.5 27.5 51.5V49.5ZM30 84.5C25.2906 84.5 21.8388 84.4986 19.1509 84.2074C16.4816 83.9182 14.6845 83.3528 13.2405 82.3037L12.0649 83.9217C13.9067 85.2599 16.096 85.8881 18.9354 86.1958C21.7561 86.5014 25.3351 86.5 30 86.5V84.5ZM6.5 63C6.5 67.6649 6.49863 71.2439 6.80423 74.0646C7.11186 76.904 7.74013 79.0933 9.07827 80.9351L10.6963 79.7595C9.64716 78.3155 9.08179 76.5184 8.79259 73.8491C8.50137 71.1612 8.5 67.7094 8.5 63H6.5ZM30 86.5C34.6649 86.5 38.2439 86.5014 41.0646 86.1958C43.904 85.8881 46.0933 85.2599 47.9351 83.9217L46.7595 82.3037C45.3155 83.3528 43.5184 83.9182 40.8491 84.2074C38.1612 84.4986 34.7094 84.5 30 84.5V86.5ZM49.3037 79.7595C48.5944 80.7358 47.7358 81.5944 46.7595 82.3037L47.9351 83.9217C49.0812 83.0891 50.0891 82.0812 50.9217 80.9351L49.3037 79.7595ZM30 41.5C34.7094 41.5 38.1612 41.5014 40.8491 41.7926C43.5184 42.0818 45.3155 42.6472 46.7595 43.6963L47.9351 42.0783C46.0933 40.7401 43.904 40.1119 41.0646 39.8042C38.2439 39.4986 34.6649 39.5 30 39.5V41.5ZM53.5 63C53.5 58.3351 53.5014 54.7561 53.1958 51.9354C52.8881 49.096 52.2599 46.9067 50.9217 45.0649L49.3037 46.2405C50.3528 47.6845 50.9182 49.4816 51.2074 52.1509C51.4986 54.8388 51.5 58.2906 51.5 63H53.5ZM46.7595 43.6963C47.7358 44.4056 48.5944 45.2642 49.3037 46.2405L50.9217 45.0649C50.0891 43.9188 49.0812 42.9109 47.9351 42.0783L46.7595 43.6963ZM30 39.5C25.3351 39.5 21.7561 39.4986 18.9354 39.8042C16.096 40.1119 13.9067 40.7401 12.0649 42.0783L13.2405 43.6963C14.6845 42.6472 16.4816 42.0818 19.1509 41.7926C21.8388 41.5014 25.2906 41.5 30 41.5V39.5ZM8.5 63C8.5 58.2906 8.50137 54.8388 8.79259 52.1509C9.08179 49.4816 9.64716 47.6845 10.6963 46.2405L9.07827 45.0649C7.74013 46.9067 7.11186 49.096 6.80423 51.9354C6.49863 54.7561 6.5 58.3351 6.5 63H8.5ZM12.0649 42.0783C10.9188 42.9109 9.91095 43.9188 9.07827 45.0649L10.6963 46.2405C11.4056 45.2642 12.2642 44.4056 13.2405 43.6963L12.0649 42.0783ZM28.9461 69.5194C26.0057 68.9313 24.382 68.6007 22.874 68.6327L22.9164 70.6323C24.1516 70.606 25.5167 70.8731 28.5539 71.4806L28.9461 69.5194ZM11.4435 79.849C12.8287 77.0787 13.456 75.8371 14.235 74.8782L12.6827 73.6171C11.7316 74.7878 10.9958 76.2724 9.6547 78.9545L11.4435 79.849ZM22.874 68.6327C18.9097 68.7169 15.183 70.5396 12.6827 73.6171L14.235 74.8782C16.3648 72.2566 19.5395 70.704 22.9164 70.6323L22.874 68.6327ZM28.3112 71.9364L21.6294 83.7579L23.3706 84.7421L30.0523 72.9205L28.3112 71.9364ZM49.3555 64.96C43.5538 60.8407 35.5509 61.9316 31.0633 67.4534L32.6154 68.7147C36.4381 64.011 43.2554 63.0817 48.1976 66.5907L49.3555 64.96ZM30.0523 72.9205C30.3769 72.3462 30.6603 71.8449 30.9136 71.4019L29.1774 70.4091C28.9211 70.8573 28.6351 71.3633 28.3112 71.9364L30.0523 72.9205ZM30.9136 71.4019C31.7081 70.0124 32.1728 69.2594 32.6154 68.7147L31.0633 67.4534C30.5024 68.1436 29.9624 69.0363 29.1774 70.4091L30.9136 71.4019ZM28.4513 71.4543L29.7468 71.8598L30.3442 69.9511L29.0487 69.5457L28.4513 71.4543ZM53.1696 68.5054C51.3156 66.6514 50.2944 65.6267 49.3555 64.96L48.1976 66.5907C48.9635 67.1346 49.8388 68.003 51.7554 69.9196L53.1696 68.5054ZM51.5 63C51.5 65.3506 51.5 67.393 51.4627 69.1918L53.4623 69.2332C53.5 67.4094 53.5 65.3446 53.5 63H51.5ZM51.4627 69.1918C51.3501 74.6327 50.8877 77.5794 49.3037 79.7595L50.9217 80.9351C52.9167 78.1893 53.3505 74.6354 53.4623 69.2332L51.4627 69.1918ZM9.6547 78.9545L9.38013 79.5037L11.169 80.3981L11.4436 79.849L9.6547 78.9545ZM13.2405 82.3037C12.2996 81.6201 11.4681 80.7979 10.7741 79.8654L9.16962 81.0593C9.98428 82.1541 10.9604 83.1193 12.0649 83.9217L13.2405 82.3037ZM10.7741 79.8654C10.748 79.8302 10.722 79.795 10.6963 79.7595L9.07827 80.9351C9.10849 80.9767 9.13894 81.0181 9.16962 81.0593L10.7741 79.8654ZM9.41398 79.4416L9.11128 79.953L10.8325 80.9716L11.1351 80.4602L9.41398 79.4416Z" fill="#2D264B"/>
<path d="M50.3333 35.5309H63.6666M56.9999 42.1975V35.5309L56.9999 28.8642" stroke="#FFE500" stroke-width="2" stroke-linecap="round"/>
<path fill-rule="evenodd" clip-rule="evenodd" d="M96.766 3.12171C96.5836 3.13873 96.3841 3.17836 96.3226 3.20983C96.2612 3.24131 96.1886 3.22182 96.1613 3.16661C96.0977 3.0382 95.7557 3.00535 95.745 3.1267C95.7402 3.1824 95.6497 3.16835 95.5147 3.09095C95.3407 2.99116 95.2366 2.98763 95.0357 3.07474C94.8426 3.1583 94.7721 3.15714 94.7515 3.07029C94.7306 2.9821 94.6669 2.9752 94.4834 3.04145C94.319 3.10068 94.2255 3.09571 94.1885 3.02557C94.1587 2.9691 93.9604 2.90139 93.7477 2.87513C93.4437 2.83757 93.3266 2.869 93.1997 3.02241C93.111 3.12965 93.0423 3.17334 93.047 3.11961C93.0564 3.01176 91.9931 2.85864 91.8268 2.94378C91.7704 2.97268 91.4574 2.96296 91.1311 2.92232C90.6276 2.85956 90.5023 2.87694 90.3016 3.03741C90.118 3.18426 90.0388 3.20001 89.9471 3.10789C89.7771 2.9371 89.0385 2.92105 88.8957 3.08507C88.7998 3.19527 88.7533 3.19631 88.6483 3.09092C88.5561 2.99819 88.5065 2.99036 88.4753 3.0635C88.4474 3.12835 88.1446 3.14145 87.6488 3.09929C87.2184 3.06268 86.6318 3.07902 86.3454 3.1357C86.0589 3.19237 85.6883 3.21589 85.5219 3.1881C85.3554 3.16021 85.1636 3.1766 85.0956 3.22433C85.0277 3.27215 84.8908 3.30562 84.7914 3.29872C84.4134 3.27255 83.8542 3.3477 83.6661 3.44993C83.5584 3.50845 83.3001 3.53886 83.0922 3.51746C82.8842 3.49615 82.6314 3.51466 82.5303 3.55864C82.4291 3.6027 82.1464 3.65148 81.9019 3.66713C81.6573 3.68278 81.4541 3.73294 81.4501 3.7787C81.4461 3.82437 81.3689 3.85532 81.2787 3.84743C81.1884 3.83953 81.0199 3.88858 80.9045 3.95643C80.7889 4.02428 80.6312 4.04856 80.5539 4.01034C80.4767 3.97221 80.2409 4.01385 80.0299 4.10293C79.7903 4.20414 79.6277 4.22734 79.5968 4.16482C79.5667 4.10398 79.5024 4.09429 79.4327 4.14026C79.3696 4.18179 78.9594 4.31827 78.5211 4.44359C78.0829 4.56882 77.6147 4.74425 77.4807 4.83326C77.3468 4.92237 77.1795 4.9667 77.1091 4.9319C77.0214 4.88861 76.9752 4.93455 76.9627 5.07766C76.949 5.23408 76.9174 5.25985 76.8374 5.17981C76.763 5.10536 76.6149 5.10279 76.3496 5.17143C76.1401 5.22558 75.9582 5.26968 75.9455 5.26932C75.9328 5.26896 75.9134 5.36365 75.9025 5.47958C75.8881 5.63188 75.8638 5.65357 75.815 5.55774C75.7587 5.44697 75.713 5.44288 75.5395 5.53268C75.425 5.59193 75.3291 5.66708 75.3263 5.69971C75.3234 5.73225 75.1421 5.77138 74.9232 5.78663C74.3442 5.82687 73.7157 6.02636 73.7028 6.17406C73.6966 6.2444 73.6314 6.29671 73.5578 6.29028C73.4842 6.28384 73.3036 6.37358 73.1564 6.4896C73.0092 6.6057 72.8555 6.67551 72.8148 6.64473C72.7742 6.61396 72.6606 6.66857 72.5626 6.76611C72.4646 6.86375 72.2897 6.93529 72.174 6.92516C72.047 6.91405 71.9586 6.96349 71.9511 7.04977C71.9442 7.12835 71.8312 7.22373 71.6999 7.26167C71.5686 7.2996 71.454 7.40543 71.4453 7.49689C71.4334 7.62002 71.4123 7.62989 71.364 7.53494C71.3119 7.43277 71.2366 7.43573 70.9925 7.54969C70.8241 7.62841 70.6814 7.74548 70.6754 7.80987C70.6695 7.87437 70.5815 7.91977 70.4799 7.91089C70.3783 7.902 70.2922 7.92849 70.2886 7.96984C70.285 8.0111 70.087 8.12078 69.8485 8.2136C69.6101 8.30632 69.4113 8.425 69.4067 8.47723C69.4021 8.52946 69.336 8.56677 69.2599 8.56011C69.1829 8.55338 69.114 8.63135 69.1049 8.73554C69.0958 8.83973 69.0269 8.91771 68.95 8.91098C68.8738 8.90431 68.8078 8.94106 68.8032 8.99263C68.7987 9.04421 68.7431 9.08196 68.6796 9.0765C68.5071 9.06179 67.8408 9.56857 68.0067 9.58837C68.0826 9.59738 67.9947 9.64525 67.8112 9.69469C67.6278 9.74403 67.3474 9.88779 67.1881 10.014C67.0288 10.1402 66.8631 10.2403 66.8197 10.2365C66.7763 10.2327 66.7354 10.2918 66.7287 10.3678C66.7221 10.4439 66.5955 10.5568 66.4473 10.6188C66.2992 10.6807 65.9987 10.9107 65.7796 11.1298C65.5604 11.3488 65.3362 11.5241 65.2812 11.5193C65.1554 11.5083 64.6309 12.0116 64.6175 12.1561C64.6119 12.2152 64.4783 12.3238 64.3205 12.3975C64.1627 12.4711 63.9973 12.6374 63.9529 12.767C63.9086 12.8965 63.8272 12.9985 63.772 12.9937C63.6098 12.9795 63.1108 13.4294 63.0955 13.6036C63.0878 13.6915 63.0171 13.7824 62.9383 13.8054C62.8595 13.8284 62.7889 13.9175 62.7814 14.0033C62.7739 14.0892 62.689 14.2217 62.5927 14.2979C62.3538 14.487 62.1535 14.798 62.1351 15.0081C62.1267 15.1041 62.0311 15.2698 61.9225 15.3765C61.8141 15.4831 61.7415 15.6279 61.7612 15.6981C61.7831 15.7758 61.7357 15.815 61.6404 15.798C61.3997 15.7552 61.3701 15.9513 61.5951 16.0979C61.7054 16.1697 61.7307 16.2039 61.6513 16.174C61.5269 16.127 61.1791 16.362 61.1669 16.5013C61.1646 16.5275 61.0382 16.7151 60.886 16.918C60.6566 17.2239 60.6253 17.3192 60.703 17.4745C60.7704 17.6089 60.7658 17.6939 60.687 17.7748C60.5693 17.8955 60.6118 18.1979 60.7482 18.2099C60.7936 18.2138 60.8274 18.2554 60.8233 18.3021C60.8192 18.3488 60.7347 18.3577 60.6354 18.3219C60.5145 18.2782 60.451 18.3028 60.4428 18.3968C60.436 18.4739 60.3642 18.5835 60.2831 18.6405C60.1542 18.7312 60.1561 18.7756 60.2985 18.9969C60.476 19.2727 60.4919 19.6049 60.327 19.5904C60.2523 19.5839 60.2482 19.6179 60.3124 19.7122C60.3614 19.7841 60.37 19.9322 60.3316 20.0412C60.2385 20.3048 60.467 20.581 60.7286 20.5212C60.8472 20.4942 60.9104 20.4218 60.8873 20.3397C60.866 20.2636 60.9043 20.2079 60.9738 20.214C61.1088 20.2258 61.184 20.4903 61.1047 20.6743C61.0777 20.737 60.9967 20.783 60.9248 20.7767C60.7583 20.7621 60.7408 20.9138 60.8999 20.9923C60.9663 21.0251 61.0962 20.9768 61.1885 20.8849C61.3717 20.7026 61.4322 20.4431 61.2942 20.431C61.1896 20.4219 61.2372 20.0231 61.3509 19.9566C61.3952 19.9306 61.4593 19.8108 61.4932 19.6903C61.5272 19.5698 61.6213 19.4408 61.7022 19.4037C61.7832 19.3666 61.8597 19.2197 61.8721 19.0774C61.8865 18.913 62.0117 18.7166 62.2149 18.5395C62.4432 18.3403 62.545 18.1681 62.5699 17.9386C62.5961 17.6973 62.6452 17.6203 62.7664 17.6308C62.9138 17.6434 62.9732 17.5561 62.9266 17.3955C62.9167 17.3616 63 17.3084 63.1115 17.2773C63.2668 17.2339 63.3087 17.1631 63.29 16.975C63.2719 16.7928 63.3043 16.7326 63.4149 16.7423C63.4971 16.7495 63.5679 16.7131 63.5724 16.6616C63.577 16.61 63.643 16.5732 63.7192 16.5799C63.7954 16.5866 63.8617 16.5468 63.8665 16.4916C63.8713 16.4363 63.9461 16.3307 64.0326 16.257C64.1438 16.1622 64.1637 16.0912 64.1003 16.0145C63.9651 15.8508 64.0051 15.7427 64.1838 15.7896C64.2765 15.8138 64.3482 15.7726 64.3553 15.6906C64.3621 15.6132 64.4529 15.5324 64.5572 15.5109C64.6614 15.4895 64.7406 15.4219 64.7331 15.3609C64.7257 15.3 64.7747 15.2548 64.842 15.2607C64.9094 15.2666 65.0674 15.178 65.1933 15.0638C65.4066 14.87 65.4109 14.8521 65.2561 14.7968C65.1408 14.7555 65.1657 14.7407 65.3373 14.748C65.5104 14.7555 65.6871 14.6478 65.9271 14.3888C66.4414 13.8333 66.6134 13.7053 66.7851 13.75C66.8878 13.7768 66.9574 13.7195 66.9891 13.5823C67.0179 13.4566 67.1013 13.3795 67.1991 13.388C67.2923 13.3962 67.4515 13.2597 67.5742 13.0665C67.6914 12.8819 67.8274 12.7285 67.8763 12.7258C68.192 12.7084 68.4234 12.5861 68.5289 12.3811C68.5959 12.2512 68.6466 12.1126 68.6418 12.0732C68.637 12.0339 68.6855 11.9996 68.7497 11.9974C68.8139 11.9951 68.9089 11.9871 68.9607 11.9795C69.0125 11.9719 69.133 11.9677 69.2283 11.97C69.354 11.9732 69.3929 11.9217 69.3697 11.7825C69.3443 11.63 69.3833 11.5947 69.5601 11.6102C69.6823 11.6209 69.7865 11.5817 69.7916 11.5232C69.8037 11.3854 70.2356 11.0458 70.5844 10.8999C70.7344 10.8371 70.8874 10.723 70.9243 10.6464C70.9612 10.5697 71.0734 10.5142 71.1736 10.5229C71.2737 10.5317 71.3783 10.5082 71.4059 10.4707C71.4334 10.4331 71.2819 10.3987 71.0691 10.3942C70.7235 10.3867 70.7055 10.3762 70.901 10.2952C71.0518 10.2327 71.1078 10.1494 71.081 10.0272C71.0335 9.81038 71.1297 9.8084 71.325 10.0221C71.4588 10.1686 71.4937 10.1632 71.7333 9.95902C71.8774 9.83621 71.9914 9.77994 71.9867 9.83387C71.9755 9.96197 72.2276 9.98326 72.2809 9.85876C72.3035 9.80592 72.4055 9.75739 72.5074 9.75101C72.6234 9.74367 72.6992 9.66687 72.7098 9.54608C72.7333 9.2776 72.849 9.20343 73.0032 9.35819C73.0899 9.44525 73.1366 9.45444 73.1426 9.3856C73.1476 9.32877 73.2579 9.26481 73.3877 9.24357C73.5175 9.22232 73.6289 9.14617 73.6351 9.07443C73.6424 8.99125 73.7494 8.95289 73.9301 8.9687C74.2052 8.99277 74.8984 8.66457 75.1776 8.37811C75.251 8.3028 75.3434 8.26562 75.3829 8.29543C75.4223 8.32534 75.6102 8.27818 75.8002 8.19077C75.9903 8.10336 76.144 8.0533 76.1417 8.07956C76.1332 8.17671 76.7701 7.85994 76.9023 7.70113C76.9778 7.61069 77.0778 7.56567 77.1246 7.60104C77.1714 7.63651 77.2634 7.62878 77.3291 7.58397C77.3947 7.53916 77.6381 7.4892 77.8698 7.473C78.1016 7.4567 78.455 7.35524 78.6553 7.24756C78.8555 7.13977 79.1047 7.05905 79.2091 7.06818C79.3133 7.0773 79.5593 7.02851 79.7556 6.9597C79.9519 6.89088 80.1487 6.8462 80.1928 6.86046C80.237 6.87472 80.3736 6.80598 80.4965 6.70777C80.6582 6.57848 80.7841 6.5516 80.9524 6.61055C81.1014 6.66271 81.2654 6.64483 81.4084 6.56086C81.5312 6.48873 81.8108 6.44535 82.0297 6.4645C82.2886 6.48715 82.4493 6.45424 82.4898 6.37028C82.5239 6.29937 82.6152 6.22279 82.6926 6.20017C82.7709 6.17726 82.8052 6.19755 82.7697 6.24575C82.7336 6.29494 82.7701 6.31373 82.8541 6.28924C82.9357 6.26538 83.0117 6.17687 83.0231 6.09245C83.0345 6.00802 83.0579 5.98389 83.0751 6.03869C83.1122 6.15694 83.8467 6.168 83.857 6.0504C83.8608 6.00586 83.9273 6.00071 84.0047 6.03895C84.1231 6.0974 84.4697 6.04485 85.3649 5.83261C85.5609 5.78615 85.8716 5.77422 86.568 5.78638C86.8943 5.79216 87.1904 5.75825 87.2259 5.71109C87.2875 5.62963 87.5222 5.62484 88.5885 5.68326C88.8432 5.69723 89.0829 5.67181 89.1212 5.62677C89.1595 5.58174 89.3717 5.54947 89.5928 5.55511C89.8139 5.56065 90.0197 5.56515 90.05 5.56497C90.0805 5.5648 90.2312 5.4729 90.3848 5.36077C90.6188 5.19007 90.6827 5.17922 90.7775 5.29391C90.8396 5.36918 90.8868 5.47357 90.8822 5.5258C90.8705 5.65981 92.1745 5.6553 92.4093 5.52059C92.5451 5.44261 92.6425 5.44442 92.7675 5.52717C92.866 5.59248 93.0848 5.62477 93.2815 5.60304C93.4699 5.58229 94.6433 5.64111 95.8892 5.73385C97.135 5.8265 98.2486 5.90758 98.3637 5.91396C98.4789 5.92026 98.6744 5.8391 98.7982 5.7336L99.0235 5.54164L99.035 5.76632C99.0453 5.96688 99.0821 5.98825 99.378 5.96576C99.5603 5.95185 99.7938 5.8757 99.8968 5.79645C100.074 5.6601 100.083 5.6625 100.067 5.84218C100.054 5.99654 100.115 6.04038 100.396 6.07663C101.206 6.18134 101.655 6.19017 101.777 6.10377C101.875 6.03526 101.942 6.05192 102.038 6.16834C102.199 6.36289 103.918 6.53799 104.044 6.37259C104.094 6.30765 104.117 6.33018 104.109 6.43538C104.095 6.61144 104.357 6.66901 104.703 6.56576C104.827 6.52886 104.923 6.55597 104.976 6.6426C105.021 6.71617 105.305 6.82218 105.607 6.87819C105.909 6.93421 106.279 7.006 106.43 7.03777C106.58 7.06955 106.732 7.05593 106.768 7.00754C106.808 6.95285 106.877 6.9708 106.95 7.05499C107.088 7.21354 107.753 7.33917 107.765 7.20882C107.769 7.15997 107.92 7.19819 108.1 7.29378C108.28 7.38937 108.582 7.46618 108.771 7.46443C109.02 7.46213 109.101 7.49304 109.061 7.57592C109.012 7.67784 109.193 7.75701 109.426 7.73555C109.47 7.73154 109.755 7.82067 110.06 7.93362C110.365 8.04658 110.821 8.16824 111.074 8.20397C111.327 8.23969 111.615 8.30396 111.713 8.34699C111.855 8.40884 111.936 8.35832 112.1 8.10325C112.268 7.84353 112.322 7.81105 112.376 7.9345C112.413 8.01865 112.415 8.12705 112.379 8.17553C112.343 8.22401 112.363 8.2679 112.423 8.27315C112.506 8.28035 112.504 8.3123 112.416 8.40268C112.323 8.4975 112.342 8.53842 112.503 8.59804C112.821 8.71515 112.862 8.70292 112.818 8.50291C112.784 8.34539 112.821 8.32163 113.058 8.34926C113.289 8.37617 113.335 8.42105 113.319 8.60213C113.291 8.92679 113.586 9.24163 113.874 9.19446C114.005 9.17303 114.261 9.23387 114.452 9.33221C114.709 9.46328 114.826 9.48354 114.91 9.41139C114.995 9.33923 115.068 9.37141 115.195 9.53714C115.325 9.70652 115.444 9.75693 115.689 9.74756C115.875 9.74051 116.036 9.78429 116.071 9.8515C116.104 9.91544 116.272 10.0336 116.444 10.1142C116.708 10.2378 116.775 10.2404 116.869 10.131C116.955 10.0324 117.005 10.0298 117.08 10.1201C117.134 10.1854 117.173 10.289 117.168 10.3504C117.154 10.5104 117.887 10.919 118.392 11.0324C118.628 11.0855 118.898 11.1931 118.992 11.2716C119.087 11.35 119.224 11.4195 119.299 11.426C119.373 11.4325 119.615 11.5489 119.837 11.6848C120.093 11.8416 120.412 11.9471 120.71 11.9738C121.071 12.0061 121.176 12.0487 121.16 12.1558C121.147 12.242 121.235 12.3157 121.39 12.3476C121.528 12.3761 121.639 12.4343 121.635 12.4769C121.626 12.5828 122.294 12.9165 122.562 12.9399C122.682 12.9504 122.826 13.0268 122.882 13.1097C122.994 13.2741 123.327 13.3434 123.339 13.2048C123.343 13.1575 123.297 13.0931 123.235 13.0614C123.167 13.0261 123.185 13.0064 123.281 13.0103C123.368 13.0138 123.501 13.1505 123.578 13.3142C123.655 13.4779 123.773 13.5958 123.84 13.5763C123.906 13.5568 123.958 13.5775 123.954 13.6223C123.95 13.6672 124.1 13.7129 124.288 13.7239C124.479 13.735 124.641 13.7948 124.656 13.8599C124.671 13.9237 124.737 13.9807 124.803 13.9864C124.868 13.9922 124.968 14.0647 125.025 14.1476C125.081 14.2305 125.206 14.3052 125.301 14.3135C125.396 14.3219 125.554 14.4248 125.651 14.5424C125.765 14.6801 125.906 14.7478 126.05 14.7327C126.172 14.7199 126.287 14.7577 126.305 14.8167C126.328 14.8886 126.371 14.8844 126.438 14.8039C126.522 14.7025 126.545 14.7045 126.584 14.8167C126.619 14.9187 126.644 14.9237 126.693 14.8378C126.742 14.7519 126.785 14.7603 126.879 14.8736C126.946 14.9548 127.075 15.0042 127.165 14.9833C127.29 14.9543 127.297 14.9642 127.195 15.0255C127.083 15.0928 127.08 15.1201 127.18 15.1984C127.245 15.2495 127.36 15.3012 127.435 15.3131C127.511 15.325 127.645 15.3474 127.734 15.3628C127.822 15.3782 127.888 15.4541 127.882 15.5315C127.873 15.6294 127.966 15.6806 128.188 15.7C128.381 15.7169 128.533 15.7886 128.575 15.8816C128.612 15.966 128.707 16.0507 128.786 16.0696C128.865 16.0885 128.989 16.164 129.062 16.2373C129.135 16.3107 129.277 16.3521 129.376 16.3294C129.483 16.305 129.6 16.3508 129.661 16.441C129.719 16.5252 129.833 16.6002 129.916 16.6078C129.999 16.6154 130.184 16.7163 130.327 16.8321C130.47 16.948 130.66 17.0493 130.749 17.0574C130.838 17.0655 130.908 17.1054 130.904 17.1459C130.898 17.2194 131.111 17.2764 131.533 17.3145C131.656 17.3256 131.824 17.4087 131.907 17.4991C131.99 17.5895 132.096 17.6437 132.143 17.6196C132.19 17.5954 132.28 17.6628 132.342 17.7695C132.405 17.8761 132.504 17.9675 132.563 17.9727C132.622 17.9778 132.716 18.0499 132.772 18.1328C132.905 18.3271 133.126 18.3464 133.142 18.1651C133.148 18.0877 133.112 18.0208 133.062 18.0163C133.011 18.0119 132.973 17.97 132.977 17.9233C132.981 17.8766 133.081 17.8954 133.199 17.9652C133.358 18.0592 133.385 18.1206 133.306 18.202C133.247 18.2624 133.235 18.3193 133.279 18.3286C133.323 18.3378 133.515 18.3726 133.707 18.4059C134.085 18.4715 134.31 18.64 134.292 18.8442C134.286 18.9153 134.324 18.9772 134.376 18.9818C134.429 18.9864 134.574 19.072 134.699 19.1719C134.824 19.272 134.988 19.3685 135.063 19.3865C135.139 19.4046 135.227 19.4732 135.259 19.539C135.292 19.6049 135.388 19.6385 135.472 19.6139C135.568 19.5859 135.663 19.6424 135.724 19.7638C135.777 19.871 135.89 19.9647 135.974 19.972C136.059 19.9795 136.143 20.0904 136.164 20.2249C136.184 20.3566 136.266 20.47 136.344 20.4769C136.472 20.4881 136.471 20.5038 136.337 20.618C136.254 20.6887 136.142 20.7427 136.087 20.7379C136.033 20.7331 135.984 20.7726 135.98 20.8255C135.975 20.8801 135.857 20.8482 135.706 20.7514C135.516 20.629 135.391 20.6032 135.261 20.6594C135.162 20.7025 135.055 20.7063 135.024 20.6679C134.992 20.6295 134.924 20.6557 134.872 20.7261C134.79 20.8373 134.772 20.8354 134.738 20.7117C134.704 20.5922 134.484 20.5581 133.379 20.5009C132.653 20.4634 131.999 20.4648 131.926 20.5041C131.841 20.55 131.769 20.5268 131.724 20.4391C131.669 20.3305 131.652 20.328 131.642 20.4266C131.636 20.4947 131.571 20.6006 131.499 20.6619C131.392 20.7532 131.336 20.7407 131.184 20.5921C131.035 20.4465 130.92 20.4195 130.596 20.4543C130.374 20.478 130.161 20.4965 130.123 20.4954C130.084 20.4943 130.048 20.5568 130.041 20.6341C130.034 20.7115 129.986 20.7711 129.933 20.7665C129.881 20.7619 129.82 20.6927 129.797 20.6128C129.749 20.4403 129.581 20.4102 129.422 20.5456C129.289 20.659 129.465 20.9345 129.664 20.9254C129.941 20.9128 130.023 20.9753 129.99 21.173C129.908 21.6595 129.935 21.8017 130.099 21.7538C130.22 21.7183 130.241 21.7438 130.185 21.8588C130.142 21.9494 130.158 22.0151 130.225 22.0217C130.287 22.0278 130.429 22.0665 130.54 22.1075C130.689 22.1625 130.746 22.1421 130.756 22.0307C130.771 21.8579 130.894 21.8486 131.127 22.0025C131.254 22.0866 131.3 22.0711 131.351 21.9277C131.386 21.828 131.463 21.7508 131.522 21.7559C131.587 21.7616 131.6 21.8368 131.555 21.9472C131.496 22.0904 131.514 22.1192 131.639 22.0825C131.727 22.0569 131.825 22.0913 131.859 22.1587C131.892 22.2262 132.07 22.3018 132.254 22.3268C132.517 22.3626 132.591 22.3374 132.602 22.2064C132.622 21.9802 132.864 22.0174 132.904 22.2527C132.932 22.4244 132.998 22.4441 133.61 22.4623C134.069 22.4759 134.36 22.5306 134.52 22.6329C134.719 22.7609 134.793 22.7673 135.012 22.6755C135.153 22.616 135.266 22.5998 135.263 22.6394C135.259 22.679 135.383 22.7037 135.537 22.6943C135.692 22.6849 135.823 22.6233 135.828 22.5572C135.844 22.3777 136.103 22.336 136.151 22.5053C136.209 22.7127 136.197 22.7517 136.098 22.6767C136.048 22.6385 136.03 22.6773 136.056 22.7699C136.092 22.8969 136.119 22.9049 136.191 22.8102C136.265 22.7135 136.296 22.719 136.362 22.8408C136.428 22.9642 136.458 22.969 136.534 22.8694C136.596 22.7884 136.643 22.7839 136.678 22.8554C136.707 22.9137 136.865 22.9696 137.028 22.9792C137.192 22.989 137.366 23.0107 137.416 23.0274C137.603 23.0905 137.666 23.045 137.575 22.9115C137.5 22.8007 137.526 22.7773 137.706 22.793C137.848 22.8055 137.942 22.8788 137.961 22.9925C138.002 23.2399 138.167 23.2333 138.238 22.9813L138.297 22.7738L138.291 22.9859C138.283 23.2742 138.738 23.3368 138.763 23.0509C138.772 22.9477 138.817 22.8666 138.863 22.8707C138.909 22.8747 138.92 22.9531 138.888 23.0448C138.817 23.2469 139.026 23.4795 139.258 23.4558C139.351 23.4464 139.476 23.3479 139.536 23.237C139.596 23.1261 139.687 23.0437 139.738 23.0538C139.973 23.1004 140.047 23.0487 140.124 22.783C140.189 22.5568 140.166 22.4588 140.014 22.3092C139.841 22.1398 139.835 22.0914 139.957 21.8347C140.077 21.5812 140.072 21.5238 139.91 21.3275C139.809 21.2058 139.746 21.0223 139.769 20.9196C139.801 20.7804 139.787 20.7635 139.716 20.8528C139.649 20.9365 139.603 20.9397 139.565 20.8633C139.536 20.8032 139.435 20.7473 139.342 20.7392C139.147 20.7221 139.076 20.5369 139.111 20.1387C139.124 19.9851 139.099 19.8779 139.055 19.9005C138.966 19.9463 138.693 19.5981 138.705 19.454C138.71 19.403 138.657 19.3563 138.588 19.3503C138.504 19.3429 138.483 19.2634 138.526 19.1114C138.575 18.9368 138.524 18.8161 138.306 18.596C137.773 18.0556 137.543 17.7441 137.61 17.6527C137.701 17.5292 137.453 17.0776 137.287 17.0631C137.206 17.056 137.179 16.9976 137.219 16.9154C137.262 16.825 137.227 16.7733 137.113 16.7613C136.842 16.7329 136.639 16.4877 136.662 16.2176C136.682 15.9921 136.666 15.9786 136.488 16.071C136.315 16.1603 136.266 16.136 136.082 15.8708C135.966 15.7049 135.823 15.4266 135.764 15.2525C135.642 14.8973 135.532 14.847 135.378 15.0763C135.227 15.3011 135.131 15.1238 135.179 14.7068C135.21 14.4303 135.188 14.3556 135.083 14.3861C134.998 14.411 134.934 14.349 134.913 14.2218C134.894 14.1094 134.825 14.0128 134.76 14.0071C134.683 14.0004 134.652 14.0728 134.673 14.2121L134.705 14.4276L134.53 14.1883C134.29 13.8622 134.239 13.5805 134.402 13.4833C134.5 13.4253 134.481 13.4113 134.331 13.431C134.184 13.4502 134.143 13.4222 134.186 13.3321C134.22 13.2629 134.198 13.202 134.137 13.1967C134.077 13.1914 133.881 13.002 133.702 12.7758C133.522 12.5496 133.322 12.367 133.256 12.3701C132.821 12.3901 132.723 12.3178 132.751 11.9976C132.774 11.729 132.75 11.6831 132.598 11.7096C132.474 11.731 132.373 11.6582 132.279 11.4809C132.204 11.3379 132.167 11.1995 132.198 11.1735C132.267 11.1138 132.008 10.7953 131.739 10.6114C131.536 10.4726 131.483 10.4476 131.308 10.4096C131.257 10.3987 131.224 10.3054 131.233 10.2022C131.242 10.0955 131.188 10.0093 131.106 10.0022C131.028 9.99531 130.904 9.85717 130.831 9.69515C130.669 9.33579 130.513 9.30462 130.409 9.61042C130.366 9.73658 130.266 9.83417 130.187 9.82729C130.086 9.81847 130.066 9.76114 130.119 9.6329C130.175 9.49736 130.158 9.4615 130.054 9.49196C129.826 9.55874 129.765 9.87868 129.953 10.0226C130.045 10.0929 130.115 10.2106 130.109 10.2841C130.102 10.3577 130.126 10.3929 130.162 10.3624C130.235 10.3008 130.691 10.9947 130.682 11.1517C130.675 11.2528 131.268 11.6228 131.464 11.6399C131.523 11.6451 131.577 11.5808 131.585 11.4972C131.596 11.3726 131.621 11.3683 131.726 11.4739C131.797 11.5448 131.849 11.6714 131.843 11.7554C131.832 11.8861 131.845 11.8893 131.929 11.7778C131.983 11.7061 132.056 11.6829 132.092 11.7263C132.173 11.8244 131.91 11.9697 131.801 11.8872C131.727 11.8316 131.546 11.9951 131.531 12.1308C131.527 12.1634 131.605 12.2193 131.704 12.2551C131.803 12.2909 131.907 12.4006 131.934 12.4989C132.012 12.7767 132.313 13.042 132.532 13.0253C132.685 13.0137 132.716 13.0485 132.67 13.1784C132.638 13.2709 132.573 13.3434 132.527 13.3393C132.481 13.3353 132.504 13.4461 132.577 13.5856C132.66 13.7426 132.739 13.8022 132.783 13.7421C132.914 13.5642 133.142 13.7817 133.144 14.0864C133.146 14.3579 133.179 14.3913 133.491 14.4452C133.808 14.5 133.825 14.5189 133.714 14.6916C133.61 14.8528 133.617 14.872 133.76 14.8303C133.886 14.7932 133.912 14.8206 133.867 14.9463C133.796 15.1489 133.996 15.3934 134.188 15.3373C134.28 15.3104 134.353 15.3827 134.398 15.5444C134.485 15.8561 134.387 16.0097 134.213 15.8349C134.142 15.7639 133.953 15.6882 133.794 15.6668C133.322 15.6035 133.274 15.584 133.285 15.4602C133.295 15.3472 132.725 15.0576 132.445 15.033C132.37 15.0265 132.281 14.957 132.246 14.8786C132.21 14.796 132 14.7037 131.746 14.6591C131.506 14.6169 131.287 14.5545 131.259 14.5206C131.231 14.4868 131.133 14.4916 131.042 14.5315C130.901 14.5926 130.885 14.5686 130.938 14.3775C130.977 14.2408 130.959 14.1471 130.893 14.1413C130.834 14.1361 130.807 14.1763 130.834 14.2306C130.963 14.4921 130.617 14.2704 130.229 13.8436C130.115 13.7182 129.474 13.4557 129.273 13.4525C128.815 13.445 128.537 13.3575 128.549 13.2246C128.556 13.1455 128.491 13.0484 128.405 13.0086C128.319 12.9688 128.191 12.8778 128.12 12.8063C128.05 12.735 127.868 12.6519 127.717 12.6219C127.567 12.5919 127.311 12.479 127.149 12.371C126.987 12.263 126.773 12.1932 126.674 12.2158C126.573 12.2389 126.497 12.2128 126.502 12.157C126.507 12.102 126.407 12.0479 126.28 12.0368C126.153 12.0257 126.053 11.9718 126.057 11.9173C126.062 11.8627 126.022 11.8406 125.968 11.8682C125.914 11.8957 125.757 11.8208 125.619 11.7015C125.481 11.5822 125.323 11.4806 125.268 11.4758C125.212 11.4709 125.17 11.4247 125.175 11.3731C125.179 11.3215 125.087 11.271 124.97 11.2608C124.853 11.2505 124.722 11.2011 124.677 11.1508C124.633 11.1007 124.255 10.9209 123.837 10.7514C123.234 10.507 123.046 10.464 122.93 10.5437C122.813 10.6238 122.8 10.6203 122.868 10.5262C122.968 10.3865 122.693 10.0353 122.517 10.0782C122.453 10.0938 122.268 10.0065 122.107 9.88413C121.945 9.76168 121.697 9.65149 121.557 9.63917C121.416 9.62686 121.26 9.55019 121.21 9.46892C121.161 9.38756 121.038 9.29823 120.938 9.2703C120.838 9.24238 120.696 9.19036 120.623 9.15472C120.171 8.93603 119.893 8.8528 119.718 8.88336C119.592 8.90532 119.481 8.85593 119.418 8.74977C119.363 8.65667 119.185 8.56592 119.021 8.54676C118.858 8.52777 118.728 8.4719 118.732 8.42266C118.737 8.37343 118.68 8.35055 118.608 8.37195C118.534 8.39325 118.391 8.31685 118.29 8.20211C118.157 8.05273 118.029 8.00203 117.838 8.0237C117.66 8.04388 117.559 8.01009 117.535 7.92213C117.514 7.84957 117.2 7.69371 116.835 7.57576C116.471 7.4579 116.084 7.2906 115.975 7.20405C115.866 7.1175 115.739 7.0658 115.694 7.08912C115.648 7.11245 115.489 7.05548 115.339 6.96244C115.072 6.79682 114.545 6.75301 114.192 6.86723C114.058 6.91083 114.029 6.87344 114.046 6.67707C114.06 6.52225 114.017 6.42815 113.929 6.42048C113.853 6.41381 113.794 6.373 113.797 6.32977C113.801 6.28654 113.654 6.23232 113.471 6.20922C113.288 6.18611 113.088 6.11652 113.026 6.05441C112.897 5.92523 112.435 5.79516 112.038 5.77691C111.889 5.77002 111.742 5.7131 111.711 5.65048C111.68 5.58776 111.433 5.49833 111.163 5.45171C110.446 5.32817 110.326 5.31982 110.083 5.3769C109.91 5.41736 109.857 5.38802 109.832 5.23929C109.8 5.04559 109.793 5.04358 108.621 4.87032C108.146 4.80026 107.921 4.73135 107.838 4.63041C107.806 4.59141 107.587 4.54268 107.351 4.52209C107.116 4.5015 106.888 4.44144 106.844 4.38854C106.778 4.30966 106.195 4.21959 105.425 4.16928C105.349 4.1643 105.103 4.09841 104.879 4.0229C104.275 3.81885 103.756 3.74277 103.617 3.83801C103.549 3.88529 103.426 3.88308 103.339 3.8329C103.129 3.71331 101.386 3.52841 101.378 3.62491C101.374 3.66673 101.261 3.63222 101.126 3.54821C100.974 3.45374 100.651 3.38461 100.281 3.36692C99.6607 3.33745 99.402 3.39826 99.4798 3.5554C99.5044 3.60528 99.4624 3.6154 99.3862 3.57784C99.3101 3.54018 99.2515 3.46655 99.2561 3.41422C99.2609 3.35927 99.2015 3.36323 99.1157 3.42358C98.9948 3.50854 98.9692 3.50214 98.9791 3.38904C98.9891 3.27473 98.8564 3.24403 98.2352 3.2169C97.8193 3.19875 97.4576 3.20225 97.4313 3.22461C97.405 3.24707 97.3192 3.22605 97.2406 3.17807C97.1618 3.13008 96.9484 3.10469 96.766 3.12171ZM129.374 8.31225C129.309 8.32977 129.248 8.47813 129.24 8.64191C129.229 8.84219 129.245 8.87962 129.286 8.75626C129.32 8.65529 129.396 8.5227 129.454 8.46156C129.578 8.33178 129.543 8.26714 129.374 8.31225ZM103.843 6.29404C103.839 6.34562 103.791 6.38397 103.737 6.37927C103.683 6.37456 103.669 6.33076 103.705 6.28193C103.741 6.2331 103.788 6.19474 103.811 6.1967C103.833 6.19867 103.848 6.24247 103.843 6.29404ZM129.772 8.81924C129.756 9.00285 129.9 9.23518 130.038 9.24722C130.081 9.25103 130.089 9.19861 130.055 9.13061C130.021 9.06271 129.997 8.94733 130.002 8.87425C130.016 8.67052 129.789 8.6164 129.772 8.81924ZM87.5265 5.30157C87.4931 5.33003 87.4131 5.32643 87.3489 5.2935C87.2779 5.25714 87.3017 5.23683 87.4097 5.24174C87.5074 5.24623 87.5599 5.27312 87.5265 5.30157ZM129.514 9.10691C129.478 9.15574 129.513 9.20136 129.593 9.20829C129.672 9.21521 129.74 9.17868 129.745 9.12711C129.749 9.07553 129.714 9.02991 129.666 9.02573C129.618 9.02154 129.55 9.05808 129.514 9.10691ZM85.945 5.58419C85.9408 5.63276 85.8957 5.66879 85.845 5.66435C85.7942 5.65991 85.7584 5.59044 85.7654 5.51007C85.7724 5.42971 85.8175 5.39358 85.8655 5.42991C85.9135 5.46624 85.9493 5.53561 85.945 5.58419ZM81.232 5.20794C81.23 5.23073 81.1845 5.27173 81.1309 5.29917C81.0773 5.32661 81.0374 5.30432 81.0422 5.24974C81.047 5.19516 81.0924 5.15406 81.1432 5.15851C81.194 5.16295 81.234 5.18516 81.232 5.20794ZM80.9356 6.10891C80.9043 6.17119 80.888 6.11656 80.8993 5.98762C80.9106 5.85868 80.9361 5.80781 80.9561 5.87447C80.9761 5.94123 80.9669 6.04673 80.9356 6.10891ZM79.795 6.74146C79.7905 6.79304 79.7141 6.82821 79.6253 6.81969C79.4872 6.80638 79.4851 6.79259 79.6103 6.7253C79.7946 6.62614 79.805 6.62705 79.795 6.74146ZM121.675 11.0925C121.511 11.2319 121.438 11.0817 121.598 10.9339C121.673 10.8642 121.746 10.8502 121.76 10.9029C121.774 10.9556 121.735 11.0409 121.675 11.0925ZM78.0372 7.15465C78.0641 7.20897 78.0421 7.24956 77.9883 7.24486C77.9346 7.24016 77.8942 7.1941 77.8987 7.14253C77.9032 7.09095 77.9252 7.05035 77.9477 7.05231C77.9701 7.05428 78.0104 7.10032 78.0372 7.15465ZM132.325 12.6129C132.318 12.6903 132.271 12.7499 132.22 12.7455C132.169 12.741 132.133 12.6741 132.14 12.5967C132.147 12.5194 132.194 12.4597 132.245 12.4641C132.295 12.4686 132.331 12.5355 132.325 12.6129ZM135.165 16.3105C135.161 16.362 135.139 16.4026 135.116 16.4007C135.094 16.3987 135.053 16.3527 135.027 16.2983C135 16.244 135.022 16.2034 135.075 16.2081C135.129 16.2128 135.17 16.2589 135.165 16.3105ZM134.289 21.0058C134.282 21.0832 134.235 21.1428 134.184 21.1384C134.134 21.1339 134.098 21.067 134.104 20.9896C134.111 20.9123 134.158 20.8526 134.209 20.8571C134.26 20.8615 134.296 20.9284 134.289 21.0058ZM63.9012 15.0311C63.8992 15.0539 63.8537 15.0949 63.8002 15.1223C63.7466 15.1498 63.7067 15.1275 63.7114 15.0729C63.7162 15.0183 63.7617 14.9772 63.8125 14.9816C63.8633 14.9861 63.9032 15.0083 63.9012 15.0311ZM134.819 21.3356C134.812 21.413 134.765 21.4726 134.714 21.4682C134.663 21.4638 134.615 21.5305 134.608 21.6164C134.6 21.7023 134.571 21.7443 134.542 21.7095C134.466 21.6179 134.633 21.1777 134.74 21.187C134.79 21.1914 134.825 21.2582 134.819 21.3356ZM131.461 21.4648C131.265 21.565 131.156 21.4578 131.308 21.3149C131.389 21.2393 131.464 21.2322 131.518 21.2949C131.573 21.3591 131.553 21.4175 131.461 21.4648ZM132.292 21.386C132.391 21.5316 132.301 21.8241 132.161 21.8118C132.116 21.8079 132.084 21.7413 132.091 21.664C132.098 21.5866 132.036 21.5174 131.954 21.5102C131.831 21.4995 131.827 21.4735 131.931 21.3665C132.089 21.2046 132.171 21.2091 132.292 21.386ZM138.308 21.9969C138.209 22.0808 138.2 22.0691 138.261 21.9399C138.304 21.8504 138.36 21.8029 138.386 21.8343C138.412 21.8656 138.377 21.9388 138.308 21.9969ZM130.524 21.456C130.503 21.677 130.488 21.6891 130.419 21.5405C130.375 21.4453 130.368 21.3278 130.404 21.2793C130.513 21.1308 130.551 21.1866 130.524 21.456ZM133.464 21.9314C133.454 22.0375 133.407 22.0947 133.359 22.0584C133.311 22.0221 133.277 21.9316 133.284 21.8572C133.29 21.7829 133.337 21.7257 133.388 21.7302C133.439 21.7346 133.473 21.8252 133.464 21.9314ZM135.576 22.2523C135.569 22.3297 135.502 22.3876 135.428 22.3811C135.345 22.3739 135.318 22.3161 135.358 22.2332C135.394 22.1584 135.46 22.1005 135.506 22.1044C135.551 22.1084 135.583 22.175 135.576 22.2523ZM62.1133 16.2999C62.0421 16.3729 61.9666 16.4116 61.9454 16.3861C61.8871 16.3154 62.0328 16.1489 62.1444 16.1586C62.2057 16.164 62.1939 16.2172 62.1133 16.2999ZM62.8813 17.1152C62.8793 17.138 62.8339 17.179 62.7803 17.2065C62.7267 17.2339 62.6868 17.2116 62.6916 17.157C62.6963 17.1025 62.7418 17.0614 62.7926 17.0658C62.8434 17.0702 62.8833 17.0925 62.8813 17.1152Z" fill="#2D264B"/>
<path fill-rule="evenodd" clip-rule="evenodd" d="M236.766 123.771C236.584 123.754 236.384 123.714 236.323 123.683C236.261 123.651 236.189 123.671 236.161 123.726C236.098 123.854 235.756 123.887 235.745 123.766C235.74 123.71 235.65 123.724 235.515 123.802C235.341 123.901 235.237 123.905 235.036 123.818C234.843 123.734 234.772 123.735 234.751 123.822C234.731 123.91 234.667 123.917 234.483 123.851C234.319 123.792 234.226 123.797 234.188 123.867C234.159 123.923 233.96 123.991 233.748 124.017C233.444 124.055 233.327 124.024 233.2 123.87C233.111 123.763 233.042 123.719 233.047 123.773C233.056 123.881 231.993 124.034 231.827 123.949C231.77 123.92 231.457 123.93 231.131 123.97C230.628 124.033 230.502 124.016 230.302 123.855C230.118 123.708 230.039 123.693 229.947 123.785C229.777 123.955 229.039 123.972 228.896 123.808C228.8 123.697 228.753 123.696 228.648 123.802C228.556 123.894 228.507 123.902 228.475 123.829C228.447 123.764 228.145 123.751 227.649 123.793C227.218 123.83 226.632 123.814 226.345 123.757C226.059 123.7 225.688 123.677 225.522 123.704C225.355 123.732 225.164 123.716 225.096 123.668C225.028 123.62 224.891 123.587 224.791 123.594C224.413 123.62 223.854 123.545 223.666 123.443C223.558 123.384 223.3 123.354 223.092 123.375C222.884 123.396 222.631 123.378 222.53 123.334C222.429 123.29 222.146 123.241 221.902 123.225C221.657 123.21 221.454 123.16 221.45 123.114C221.446 123.068 221.369 123.037 221.279 123.045C221.188 123.053 221.02 123.004 220.904 122.936C220.789 122.868 220.631 122.844 220.554 122.882C220.477 122.92 220.241 122.879 220.03 122.79C219.79 122.688 219.628 122.665 219.597 122.728C219.567 122.789 219.502 122.798 219.433 122.752C219.37 122.711 218.959 122.574 218.521 122.449C218.083 122.324 217.615 122.148 217.481 122.059C217.347 121.97 217.18 121.926 217.109 121.961C217.021 122.004 216.975 121.958 216.963 121.815C216.949 121.658 216.917 121.633 216.837 121.713C216.763 121.787 216.615 121.79 216.35 121.721C216.14 121.667 215.958 121.623 215.946 121.623C215.933 121.624 215.913 121.529 215.902 121.413C215.888 121.261 215.864 121.239 215.815 121.335C215.759 121.446 215.713 121.45 215.539 121.36C215.425 121.301 215.329 121.226 215.326 121.193C215.323 121.16 215.142 121.121 214.923 121.106C214.344 121.066 213.716 120.866 213.703 120.719C213.697 120.648 213.631 120.596 213.558 120.602C213.484 120.609 213.304 120.519 213.156 120.403C213.009 120.287 212.856 120.217 212.815 120.248C212.774 120.279 212.661 120.224 212.563 120.126C212.465 120.029 212.29 119.957 212.174 119.967C212.047 119.979 211.959 119.929 211.951 119.843C211.944 119.764 211.831 119.669 211.7 119.631C211.569 119.593 211.454 119.487 211.445 119.396C211.433 119.273 211.412 119.263 211.364 119.358C211.312 119.46 211.237 119.457 210.993 119.343C210.824 119.264 210.681 119.147 210.675 119.083C210.669 119.018 210.581 118.973 210.48 118.982C210.378 118.991 210.292 118.964 210.289 118.923C210.285 118.881 210.087 118.772 209.849 118.679C209.61 118.586 209.411 118.468 209.407 118.415C209.402 118.363 209.336 118.326 209.26 118.332C209.183 118.339 209.114 118.261 209.105 118.157C209.096 118.053 209.027 117.975 208.95 117.982C208.874 117.988 208.808 117.952 208.803 117.9C208.799 117.848 208.743 117.811 208.68 117.816C208.507 117.831 207.841 117.324 208.007 117.304C208.083 117.295 207.995 117.247 207.811 117.198C207.628 117.149 207.347 117.005 207.188 116.879C207.029 116.752 206.863 116.652 206.82 116.656C206.776 116.66 206.735 116.601 206.729 116.525C206.722 116.449 206.595 116.336 206.447 116.274C206.299 116.212 205.999 115.982 205.78 115.763C205.56 115.544 205.336 115.368 205.281 115.373C205.155 115.384 204.631 114.881 204.617 114.736C204.612 114.677 204.478 114.569 204.321 114.495C204.163 114.421 203.997 114.255 203.953 114.126C203.909 113.996 203.827 113.894 203.772 113.899C203.61 113.913 203.111 113.463 203.096 113.289C203.088 113.201 203.017 113.11 202.938 113.087C202.859 113.064 202.789 112.975 202.781 112.889C202.774 112.803 202.689 112.671 202.593 112.595C202.354 112.406 202.153 112.095 202.135 111.884C202.127 111.788 202.031 111.623 201.923 111.516C201.814 111.409 201.742 111.265 201.761 111.194C201.783 111.117 201.736 111.078 201.64 111.095C201.4 111.137 201.37 110.941 201.595 110.795C201.705 110.723 201.731 110.689 201.651 110.719C201.527 110.766 201.179 110.531 201.167 110.391C201.165 110.365 201.038 110.177 200.886 109.975C200.657 109.669 200.625 109.573 200.703 109.418C200.77 109.284 200.766 109.199 200.687 109.118C200.569 108.997 200.612 108.695 200.748 108.683C200.794 108.679 200.827 108.637 200.823 108.591C200.819 108.544 200.735 108.535 200.635 108.571C200.514 108.614 200.451 108.59 200.443 108.496C200.436 108.419 200.364 108.309 200.283 108.252C200.154 108.161 200.156 108.117 200.299 107.896C200.476 107.62 200.492 107.288 200.327 107.302C200.252 107.309 200.248 107.275 200.312 107.18C200.361 107.108 200.37 106.96 200.332 106.851C200.239 106.588 200.467 106.312 200.729 106.371C200.847 106.398 200.91 106.471 200.887 106.553C200.866 106.629 200.904 106.685 200.974 106.679C201.109 106.667 201.184 106.402 201.105 106.218C201.078 106.156 200.997 106.11 200.925 106.116C200.758 106.13 200.741 105.979 200.9 105.9C200.966 105.867 201.096 105.916 201.189 106.008C201.372 106.19 201.432 106.449 201.294 106.462C201.19 106.471 201.237 106.869 201.351 106.936C201.395 106.962 201.459 107.082 201.493 107.202C201.527 107.323 201.621 107.452 201.702 107.489C201.783 107.526 201.86 107.673 201.872 107.815C201.887 107.98 202.012 108.176 202.215 108.353C202.443 108.552 202.545 108.725 202.57 108.954C202.596 109.195 202.645 109.272 202.766 109.262C202.914 109.249 202.973 109.337 202.927 109.497C202.917 109.531 203 109.584 203.112 109.615C203.267 109.659 203.309 109.729 203.29 109.918C203.272 110.1 203.304 110.16 203.415 110.15C203.497 110.143 203.568 110.179 203.572 110.231C203.577 110.283 203.643 110.319 203.719 110.313C203.795 110.306 203.862 110.346 203.866 110.401C203.871 110.456 203.946 110.562 204.033 110.636C204.144 110.73 204.164 110.801 204.1 110.878C203.965 111.042 204.005 111.15 204.184 111.103C204.277 111.079 204.348 111.12 204.355 111.202C204.362 111.279 204.453 111.36 204.557 111.382C204.661 111.403 204.741 111.471 204.733 111.532C204.726 111.593 204.775 111.638 204.842 111.632C204.909 111.626 205.067 111.715 205.193 111.829C205.407 112.023 205.411 112.04 205.256 112.096C205.141 112.137 205.166 112.152 205.337 112.145C205.51 112.137 205.687 112.245 205.927 112.504C206.441 113.059 206.613 113.187 206.785 113.143C206.888 113.116 206.957 113.173 206.989 113.31C207.018 113.436 207.101 113.513 207.199 113.505C207.292 113.496 207.452 113.633 207.574 113.826C207.691 114.011 207.827 114.164 207.876 114.167C208.192 114.184 208.423 114.306 208.529 114.511C208.596 114.641 208.647 114.78 208.642 114.819C208.637 114.859 208.686 114.893 208.75 114.895C208.814 114.897 208.909 114.906 208.961 114.913C209.013 114.921 209.133 114.925 209.228 114.923C209.354 114.919 209.393 114.971 209.37 115.11C209.344 115.263 209.383 115.298 209.56 115.282C209.682 115.272 209.786 115.311 209.792 115.369C209.804 115.507 210.236 115.847 210.584 115.993C210.734 116.056 210.887 116.17 210.924 116.246C210.961 116.323 211.073 116.378 211.174 116.37C211.274 116.361 211.378 116.384 211.406 116.422C211.433 116.459 211.282 116.494 211.069 116.498C210.723 116.506 210.705 116.516 210.901 116.597C211.052 116.66 211.108 116.743 211.081 116.865C211.034 117.082 211.13 117.084 211.325 116.87C211.459 116.724 211.494 116.729 211.733 116.934C211.877 117.056 211.991 117.113 211.987 117.059C211.975 116.931 212.228 116.909 212.281 117.034C212.303 117.087 212.405 117.135 212.507 117.142C212.623 117.149 212.699 117.226 212.71 117.346C212.733 117.615 212.849 117.689 213.003 117.534C213.09 117.447 213.137 117.438 213.143 117.507C213.148 117.564 213.258 117.628 213.388 117.649C213.518 117.67 213.629 117.746 213.635 117.818C213.642 117.901 213.749 117.94 213.93 117.924C214.205 117.9 214.898 118.228 215.178 118.514C215.251 118.59 215.343 118.627 215.383 118.597C215.422 118.567 215.61 118.614 215.8 118.702C215.99 118.789 216.144 118.839 216.142 118.813C216.133 118.716 216.77 119.033 216.902 119.191C216.978 119.282 217.078 119.327 217.125 119.292C217.171 119.256 217.263 119.264 217.329 119.309C217.395 119.353 217.638 119.403 217.87 119.42C218.102 119.436 218.455 119.537 218.655 119.645C218.856 119.753 219.105 119.834 219.209 119.824C219.313 119.815 219.559 119.864 219.756 119.933C219.952 120.002 220.149 120.046 220.193 120.032C220.237 120.018 220.374 120.087 220.497 120.185C220.658 120.314 220.784 120.341 220.952 120.282C221.101 120.23 221.265 120.248 221.408 120.332C221.531 120.404 221.811 120.447 222.03 120.428C222.289 120.405 222.449 120.438 222.49 120.522C222.524 120.593 222.615 120.67 222.693 120.692C222.771 120.715 222.805 120.695 222.77 120.647C222.734 120.598 222.77 120.579 222.854 120.603C222.936 120.627 223.012 120.716 223.023 120.8C223.034 120.885 223.058 120.909 223.075 120.854C223.112 120.736 223.847 120.725 223.857 120.842C223.861 120.887 223.927 120.892 224.005 120.854C224.123 120.795 224.47 120.848 225.365 121.06C225.561 121.106 225.872 121.118 226.568 121.106C226.894 121.1 227.19 121.134 227.226 121.181C227.288 121.263 227.522 121.268 228.589 121.209C228.843 121.195 229.083 121.221 229.121 121.266C229.159 121.311 229.372 121.343 229.593 121.337C229.814 121.332 230.02 121.327 230.05 121.328C230.08 121.328 230.231 121.42 230.385 121.532C230.619 121.703 230.683 121.713 230.777 121.599C230.84 121.523 230.887 121.419 230.882 121.367C230.871 121.233 232.174 121.237 232.409 121.372C232.545 121.45 232.642 121.448 232.767 121.365C232.866 121.3 233.085 121.268 233.282 121.29C233.47 121.31 234.643 121.251 235.889 121.159C237.135 121.066 238.249 120.985 238.364 120.979C238.479 120.972 238.674 121.053 238.798 121.159L239.023 121.351L239.035 121.126C239.045 120.926 239.082 120.904 239.378 120.927C239.56 120.941 239.794 121.017 239.897 121.096C240.074 121.232 240.083 121.23 240.067 121.05C240.054 120.896 240.115 120.852 240.396 120.816C241.206 120.711 241.655 120.702 241.777 120.789C241.875 120.857 241.942 120.841 242.038 120.724C242.199 120.53 243.918 120.355 244.044 120.52C244.094 120.585 244.117 120.562 244.109 120.457C244.095 120.281 244.357 120.224 244.703 120.327C244.827 120.364 244.923 120.337 244.976 120.25C245.021 120.176 245.305 120.07 245.607 120.014C245.909 119.958 246.279 119.887 246.43 119.855C246.58 119.823 246.732 119.837 246.768 119.885C246.808 119.94 246.877 119.922 246.95 119.838C247.088 119.679 247.753 119.553 247.765 119.684C247.769 119.733 247.92 119.694 248.1 119.599C248.28 119.503 248.582 119.426 248.771 119.428C249.02 119.43 249.101 119.4 249.061 119.317C249.012 119.215 249.193 119.136 249.426 119.157C249.47 119.161 249.755 119.072 250.06 118.959C250.365 118.846 250.821 118.724 251.074 118.689C251.327 118.653 251.615 118.589 251.713 118.546C251.855 118.484 251.936 118.534 252.1 118.789C252.268 119.049 252.322 119.082 252.376 118.958C252.413 118.874 252.415 118.766 252.379 118.717C252.343 118.669 252.363 118.625 252.423 118.619C252.506 118.612 252.504 118.58 252.416 118.49C252.323 118.395 252.342 118.354 252.503 118.295C252.821 118.177 252.862 118.19 252.818 118.39C252.784 118.547 252.821 118.571 253.058 118.543C253.289 118.516 253.335 118.472 253.319 118.29C253.291 117.966 253.586 117.651 253.874 117.698C254.005 117.72 254.261 117.659 254.452 117.56C254.709 117.429 254.826 117.409 254.91 117.481C254.995 117.553 255.068 117.521 255.195 117.355C255.325 117.186 255.444 117.136 255.689 117.145C255.875 117.152 256.036 117.108 256.071 117.041C256.104 116.977 256.272 116.859 256.444 116.778C256.708 116.655 256.775 116.652 256.869 116.762C256.955 116.86 257.005 116.863 257.08 116.772C257.134 116.707 257.173 116.604 257.168 116.542C257.154 116.382 257.887 115.974 258.392 115.86C258.628 115.807 258.898 115.699 258.992 115.621C259.087 115.543 259.224 115.473 259.299 115.467C259.373 115.46 259.615 115.344 259.837 115.208C260.093 115.051 260.412 114.945 260.71 114.919C261.071 114.887 261.176 114.844 261.16 114.737C261.147 114.651 261.235 114.577 261.39 114.545C261.528 114.516 261.639 114.458 261.635 114.416C261.626 114.31 262.294 113.976 262.562 113.953C262.682 113.942 262.826 113.866 262.882 113.783C262.994 113.618 263.327 113.549 263.339 113.688C263.343 113.735 263.297 113.8 263.235 113.831C263.167 113.866 263.185 113.886 263.281 113.882C263.368 113.879 263.501 113.742 263.578 113.578C263.655 113.415 263.773 113.297 263.84 113.316C263.906 113.336 263.958 113.315 263.954 113.27C263.95 113.225 264.1 113.18 264.288 113.169C264.479 113.158 264.641 113.098 264.656 113.033C264.671 112.969 264.737 112.912 264.803 112.906C264.868 112.9 264.968 112.828 265.025 112.745C265.081 112.662 265.206 112.587 265.301 112.579C265.396 112.571 265.554 112.468 265.651 112.35C265.765 112.212 265.906 112.145 266.05 112.16C266.172 112.173 266.287 112.135 266.305 112.076C266.328 112.004 266.371 112.008 266.438 112.089C266.522 112.19 266.545 112.188 266.584 112.076C266.619 111.974 266.644 111.969 266.693 112.055C266.742 112.141 266.785 112.132 266.879 112.019C266.946 111.938 267.075 111.888 267.165 111.909C267.29 111.938 267.297 111.928 267.195 111.867C267.083 111.8 267.08 111.773 267.18 111.694C267.245 111.643 267.36 111.591 267.435 111.579C267.511 111.568 267.645 111.545 267.734 111.53C267.822 111.514 267.888 111.438 267.882 111.361C267.873 111.263 267.966 111.212 268.188 111.193C268.381 111.176 268.533 111.104 268.575 111.011C268.612 110.927 268.707 110.842 268.786 110.823C268.865 110.804 268.989 110.729 269.062 110.655C269.135 110.582 269.277 110.54 269.376 110.563C269.483 110.588 269.6 110.542 269.661 110.452C269.719 110.367 269.833 110.292 269.916 110.285C269.999 110.277 270.184 110.176 270.327 110.06C270.47 109.945 270.66 109.843 270.749 109.835C270.838 109.827 270.908 109.787 270.904 109.747C270.898 109.673 271.111 109.616 271.533 109.578C271.656 109.567 271.824 109.484 271.907 109.394C271.99 109.303 272.096 109.249 272.143 109.273C272.19 109.297 272.28 109.23 272.342 109.123C272.405 109.016 272.504 108.925 272.563 108.92C272.622 108.915 272.716 108.843 272.772 108.76C272.905 108.565 273.126 108.546 273.142 108.728C273.148 108.805 273.112 108.872 273.062 108.876C273.011 108.881 272.973 108.923 272.977 108.969C272.981 109.016 273.081 108.997 273.199 108.927C273.358 108.833 273.385 108.772 273.306 108.691C273.247 108.63 273.235 108.573 273.279 108.564C273.323 108.555 273.515 108.52 273.707 108.487C274.085 108.421 274.31 108.253 274.292 108.048C274.286 107.977 274.324 107.915 274.376 107.911C274.429 107.906 274.574 107.821 274.699 107.721C274.824 107.621 274.988 107.524 275.063 107.506C275.139 107.488 275.227 107.419 275.259 107.354C275.292 107.288 275.388 107.254 275.472 107.279C275.568 107.307 275.663 107.25 275.724 107.129C275.777 107.022 275.89 106.928 275.974 106.921C276.059 106.913 276.143 106.802 276.164 106.668C276.184 106.536 276.266 106.423 276.344 106.416C276.472 106.405 276.471 106.389 276.337 106.275C276.254 106.204 276.142 106.15 276.087 106.155C276.033 106.159 275.984 106.12 275.98 106.067C275.975 106.012 275.857 106.044 275.706 106.141C275.516 106.264 275.391 106.289 275.261 106.233C275.162 106.19 275.055 106.186 275.024 106.225C274.992 106.263 274.924 106.237 274.872 106.166C274.79 106.055 274.772 106.057 274.738 106.181C274.704 106.3 274.484 106.334 273.379 106.392C272.653 106.429 271.999 106.428 271.926 106.389C271.841 106.343 271.769 106.366 271.724 106.453C271.669 106.562 271.652 106.565 271.642 106.466C271.636 106.398 271.571 106.292 271.499 106.231C271.392 106.139 271.336 106.152 271.184 106.3C271.035 106.446 270.92 106.473 270.596 106.438C270.374 106.415 270.161 106.396 270.123 106.397C270.084 106.398 270.048 106.336 270.041 106.258C270.034 106.181 269.986 106.122 269.933 106.126C269.881 106.131 269.82 106.2 269.797 106.28C269.749 106.452 269.581 106.482 269.422 106.347C269.289 106.234 269.465 105.958 269.664 105.967C269.941 105.98 270.023 105.917 269.99 105.72C269.908 105.233 269.935 105.091 270.099 105.139C270.22 105.174 270.241 105.149 270.185 105.034C270.142 104.943 270.158 104.877 270.225 104.871C270.287 104.865 270.429 104.826 270.54 104.785C270.689 104.73 270.746 104.75 270.756 104.862C270.771 105.035 270.894 105.044 271.127 104.89C271.254 104.806 271.3 104.822 271.351 104.965C271.386 105.065 271.463 105.142 271.522 105.137C271.587 105.131 271.6 105.056 271.555 104.945C271.496 104.802 271.514 104.773 271.639 104.81C271.727 104.836 271.825 104.801 271.859 104.734C271.892 104.666 272.07 104.591 272.254 104.566C272.517 104.53 272.591 104.555 272.602 104.686C272.622 104.912 272.864 104.875 272.904 104.64C272.932 104.468 272.998 104.448 273.61 104.43C274.069 104.417 274.36 104.362 274.52 104.26C274.719 104.132 274.793 104.125 275.012 104.217C275.153 104.277 275.266 104.293 275.263 104.253C275.259 104.214 275.383 104.189 275.537 104.198C275.692 104.208 275.823 104.269 275.828 104.335C275.844 104.515 276.103 104.557 276.151 104.387C276.209 104.18 276.197 104.141 276.098 104.216C276.048 104.254 276.03 104.215 276.056 104.123C276.092 103.996 276.119 103.988 276.191 104.082C276.265 104.179 276.296 104.174 276.362 104.052C276.428 103.928 276.458 103.924 276.534 104.023C276.596 104.104 276.643 104.109 276.678 104.037C276.707 103.979 276.865 103.923 277.028 103.913C277.192 103.904 277.366 103.882 277.416 103.865C277.603 103.802 277.666 103.848 277.575 103.981C277.5 104.092 277.526 104.115 277.706 104.1C277.848 104.087 277.942 104.014 277.961 103.9C278.002 103.653 278.167 103.659 278.238 103.911L278.297 104.119L278.291 103.907C278.283 103.618 278.738 103.556 278.763 103.842C278.772 103.945 278.817 104.026 278.863 104.022C278.909 104.018 278.92 103.94 278.888 103.848C278.817 103.646 279.026 103.413 279.258 103.437C279.351 103.446 279.476 103.545 279.536 103.656C279.596 103.766 279.687 103.849 279.738 103.839C279.973 103.792 280.047 103.844 280.124 104.11C280.189 104.336 280.166 104.434 280.014 104.583C279.841 104.753 279.835 104.801 279.957 105.058C280.077 105.311 280.072 105.369 279.91 105.565C279.809 105.687 279.746 105.87 279.769 105.973C279.801 106.112 279.787 106.129 279.716 106.04C279.649 105.956 279.603 105.953 279.565 106.029C279.536 106.089 279.435 106.145 279.342 106.153C279.147 106.17 279.076 106.356 279.111 106.754C279.124 106.907 279.099 107.015 279.055 106.992C278.966 106.946 278.693 107.295 278.705 107.439C278.71 107.49 278.657 107.536 278.588 107.542C278.504 107.55 278.483 107.629 278.526 107.781C278.575 107.956 278.524 108.076 278.306 108.297C277.773 108.837 277.543 109.148 277.61 109.24C277.701 109.363 277.453 109.815 277.287 109.83C277.206 109.837 277.179 109.895 277.219 109.977C277.262 110.068 277.227 110.119 277.113 110.131C276.842 110.16 276.639 110.405 276.662 110.675C276.682 110.9 276.666 110.914 276.488 110.822C276.315 110.732 276.266 110.757 276.082 111.022C275.966 111.188 275.823 111.466 275.764 111.64C275.642 111.995 275.532 112.046 275.378 111.816C275.227 111.591 275.131 111.769 275.179 112.186C275.21 112.462 275.188 112.537 275.083 112.506C274.998 112.482 274.934 112.544 274.913 112.671C274.894 112.783 274.825 112.88 274.76 112.885C274.683 112.892 274.652 112.82 274.673 112.68L274.705 112.465L274.53 112.704C274.29 113.03 274.239 113.312 274.402 113.409C274.5 113.467 274.481 113.481 274.331 113.462C274.184 113.442 274.143 113.47 274.186 113.561C274.22 113.63 274.198 113.691 274.137 113.696C274.077 113.701 273.881 113.891 273.702 114.117C273.522 114.343 273.322 114.526 273.256 114.523C272.821 114.502 272.723 114.575 272.751 114.895C272.774 115.164 272.75 115.209 272.598 115.183C272.474 115.162 272.373 115.234 272.279 115.412C272.204 115.555 272.167 115.693 272.198 115.719C272.267 115.779 272.008 116.097 271.739 116.281C271.536 116.42 271.483 116.445 271.308 116.483C271.257 116.494 271.224 116.587 271.233 116.69C271.242 116.797 271.188 116.883 271.106 116.89C271.028 116.897 270.904 117.035 270.831 117.197C270.669 117.557 270.513 117.588 270.409 117.282C270.366 117.156 270.266 117.058 270.187 117.065C270.086 117.074 270.066 117.131 270.119 117.26C270.175 117.395 270.158 117.431 270.054 117.401C269.826 117.334 269.765 117.014 269.953 116.87C270.045 116.8 270.115 116.682 270.109 116.608C270.102 116.535 270.126 116.5 270.162 116.53C270.235 116.592 270.691 115.898 270.682 115.741C270.675 115.64 271.268 115.27 271.464 115.253C271.523 115.248 271.577 115.312 271.585 115.395C271.596 115.52 271.621 115.524 271.726 115.419C271.797 115.348 271.849 115.221 271.843 115.137C271.832 115.007 271.845 115.003 271.929 115.115C271.983 115.187 272.056 115.21 272.092 115.166C272.173 115.068 271.91 114.923 271.801 115.005C271.727 115.061 271.546 114.898 271.531 114.762C271.527 114.729 271.605 114.673 271.704 114.638C271.803 114.602 271.907 114.492 271.934 114.394C272.012 114.116 272.313 113.851 272.532 113.867C272.685 113.879 272.716 113.844 272.67 113.714C272.638 113.622 272.573 113.549 272.527 113.553C272.481 113.557 272.504 113.446 272.577 113.307C272.66 113.15 272.739 113.09 272.783 113.15C272.914 113.328 273.142 113.111 273.144 112.806C273.146 112.535 273.179 112.501 273.491 112.447C273.808 112.393 273.825 112.374 273.714 112.201C273.61 112.04 273.617 112.021 273.76 112.062C273.886 112.099 273.912 112.072 273.867 111.946C273.796 111.744 273.996 111.499 274.188 111.555C274.28 111.582 274.353 111.51 274.398 111.348C274.485 111.036 274.387 110.883 274.213 111.058C274.142 111.129 273.953 111.204 273.794 111.226C273.322 111.289 273.274 111.309 273.285 111.432C273.295 111.545 272.725 111.835 272.445 111.86C272.37 111.866 272.281 111.936 272.246 112.014C272.21 112.097 272 112.189 271.746 112.233C271.506 112.276 271.287 112.338 271.259 112.372C271.231 112.406 271.133 112.401 271.042 112.361C270.901 112.3 270.885 112.324 270.938 112.515C270.977 112.652 270.959 112.746 270.893 112.751C270.834 112.756 270.807 112.716 270.834 112.662C270.963 112.401 270.617 112.622 270.229 113.049C270.115 113.174 269.474 113.437 269.273 113.44C268.815 113.448 268.537 113.535 268.549 113.668C268.556 113.747 268.491 113.844 268.405 113.884C268.319 113.924 268.191 114.015 268.12 114.086C268.05 114.158 267.868 114.241 267.717 114.271C267.567 114.301 267.311 114.414 267.149 114.522C266.987 114.63 266.773 114.699 266.674 114.677C266.573 114.654 266.497 114.68 266.502 114.736C266.507 114.791 266.407 114.845 266.28 114.856C266.153 114.867 266.053 114.921 266.057 114.975C266.062 115.03 266.022 115.052 265.968 115.024C265.914 114.997 265.757 115.072 265.619 115.191C265.481 115.31 265.323 115.412 265.268 115.417C265.212 115.422 265.17 115.468 265.175 115.519C265.179 115.571 265.087 115.622 264.97 115.632C264.853 115.642 264.722 115.691 264.677 115.742C264.633 115.792 264.255 115.972 263.837 116.141C263.234 116.386 263.046 116.429 262.93 116.349C262.813 116.269 262.8 116.272 262.868 116.366C262.968 116.506 262.693 116.857 262.517 116.814C262.453 116.799 262.268 116.886 262.107 117.008C261.945 117.131 261.697 117.241 261.557 117.253C261.416 117.266 261.26 117.342 261.21 117.424C261.161 117.505 261.038 117.594 260.938 117.622C260.838 117.65 260.696 117.702 260.623 117.738C260.171 117.957 259.893 118.04 259.718 118.009C259.592 117.987 259.481 118.037 259.418 118.143C259.363 118.236 259.185 118.327 259.021 118.346C258.858 118.365 258.728 118.421 258.732 118.47C258.737 118.519 258.68 118.542 258.608 118.521C258.534 118.499 258.391 118.576 258.29 118.69C258.157 118.84 258.029 118.891 257.838 118.869C257.66 118.849 257.559 118.882 257.535 118.97C257.514 119.043 257.2 119.199 256.835 119.317C256.471 119.435 256.084 119.602 255.975 119.689C255.866 119.775 255.739 119.827 255.694 119.803C255.648 119.78 255.489 119.837 255.339 119.93C255.072 120.096 254.545 120.14 254.192 120.025C254.058 119.982 254.029 120.019 254.046 120.216C254.06 120.37 254.017 120.464 253.929 120.472C253.853 120.479 253.794 120.52 253.797 120.563C253.801 120.606 253.654 120.66 253.471 120.683C253.288 120.706 253.088 120.776 253.026 120.838C252.897 120.967 252.435 121.097 252.038 121.116C251.889 121.123 251.742 121.179 251.711 121.242C251.68 121.305 251.433 121.394 251.163 121.441C250.446 121.564 250.326 121.573 250.083 121.516C249.91 121.475 249.857 121.505 249.832 121.653C249.8 121.847 249.793 121.849 248.621 122.022C248.146 122.092 247.921 122.161 247.838 122.262C247.806 122.301 247.587 122.35 247.351 122.37C247.116 122.391 246.888 122.451 246.844 122.504C246.778 122.583 246.195 122.673 245.425 122.723C245.349 122.728 245.103 122.794 244.879 122.87C244.275 123.074 243.756 123.15 243.617 123.055C243.549 123.007 243.426 123.009 243.339 123.06C243.129 123.179 241.386 123.364 241.378 123.268C241.374 123.226 241.261 123.26 241.126 123.344C240.974 123.439 240.651 123.508 240.281 123.526C239.661 123.555 239.402 123.494 239.48 123.337C239.504 123.287 239.462 123.277 239.386 123.315C239.31 123.352 239.252 123.426 239.256 123.478C239.261 123.533 239.201 123.529 239.116 123.469C238.995 123.384 238.969 123.39 238.979 123.504C238.989 123.618 238.856 123.649 238.235 123.676C237.819 123.694 237.458 123.69 237.431 123.668C237.405 123.646 237.319 123.667 237.241 123.715C237.162 123.763 236.948 123.788 236.766 123.771ZM269.374 118.58C269.309 118.563 269.248 118.414 269.24 118.251C269.229 118.05 269.245 118.013 269.286 118.136C269.32 118.237 269.396 118.37 269.454 118.431C269.578 118.561 269.543 118.625 269.374 118.58ZM243.843 120.599C243.839 120.547 243.791 120.509 243.737 120.513C243.683 120.518 243.669 120.562 243.705 120.611C243.741 120.659 243.788 120.698 243.811 120.696C243.833 120.694 243.848 120.65 243.843 120.599ZM269.772 118.073C269.756 117.89 269.9 117.657 270.038 117.645C270.081 117.642 270.089 117.694 270.055 117.762C270.021 117.83 269.997 117.945 270.002 118.018C270.016 118.222 269.789 118.276 269.772 118.073ZM227.527 121.591C227.493 121.563 227.413 121.566 227.349 121.599C227.278 121.635 227.302 121.656 227.41 121.651C227.507 121.646 227.56 121.619 227.527 121.591ZM269.514 117.786C269.478 117.737 269.513 117.691 269.593 117.684C269.672 117.677 269.74 117.714 269.745 117.765C269.749 117.817 269.714 117.863 269.666 117.867C269.618 117.871 269.55 117.835 269.514 117.786ZM225.945 121.308C225.941 121.26 225.896 121.224 225.845 121.228C225.794 121.233 225.758 121.302 225.765 121.383C225.772 121.463 225.817 121.499 225.865 121.463C225.913 121.426 225.949 121.357 225.945 121.308ZM221.232 121.685C221.23 121.662 221.185 121.621 221.131 121.593C221.077 121.566 221.037 121.588 221.042 121.643C221.047 121.697 221.092 121.739 221.143 121.734C221.194 121.73 221.234 121.707 221.232 121.685ZM220.936 120.784C220.904 120.721 220.888 120.776 220.899 120.905C220.911 121.034 220.936 121.085 220.956 121.018C220.976 120.951 220.967 120.846 220.936 120.784ZM219.795 120.151C219.79 120.1 219.714 120.064 219.625 120.073C219.487 120.086 219.485 120.1 219.61 120.167C219.795 120.266 219.805 120.266 219.795 120.151ZM261.675 115.8C261.511 115.661 261.438 115.811 261.598 115.959C261.673 116.028 261.746 116.042 261.76 115.99C261.774 115.937 261.735 115.852 261.675 115.8ZM218.037 119.738C218.064 119.684 218.042 119.643 217.988 119.648C217.935 119.652 217.894 119.698 217.899 119.75C217.903 119.802 217.925 119.842 217.948 119.84C217.97 119.838 218.01 119.792 218.037 119.738ZM272.325 114.28C272.318 114.202 272.271 114.143 272.22 114.147C272.169 114.152 272.133 114.218 272.14 114.296C272.147 114.373 272.194 114.433 272.245 114.428C272.295 114.424 272.331 114.357 272.325 114.28ZM275.165 110.582C275.161 110.531 275.139 110.49 275.116 110.492C275.094 110.494 275.053 110.54 275.027 110.594C275 110.649 275.022 110.689 275.075 110.684C275.129 110.68 275.17 110.634 275.165 110.582ZM274.289 105.887C274.282 105.809 274.235 105.75 274.184 105.754C274.134 105.759 274.098 105.826 274.104 105.903C274.111 105.98 274.158 106.04 274.209 106.036C274.26 106.031 274.296 105.964 274.289 105.887ZM203.901 111.861C203.899 111.839 203.854 111.798 203.8 111.77C203.747 111.743 203.707 111.765 203.711 111.82C203.716 111.874 203.762 111.915 203.812 111.911C203.863 111.906 203.903 111.884 203.901 111.861ZM274.819 105.557C274.812 105.48 274.765 105.42 274.714 105.424C274.663 105.429 274.615 105.362 274.608 105.276C274.6 105.19 274.571 105.148 274.542 105.183C274.466 105.275 274.633 105.715 274.74 105.706C274.79 105.701 274.825 105.634 274.819 105.557ZM271.461 105.428C271.265 105.328 271.156 105.435 271.308 105.578C271.389 105.653 271.464 105.66 271.518 105.598C271.573 105.533 271.553 105.475 271.461 105.428ZM272.292 105.507C272.391 105.361 272.301 105.068 272.161 105.081C272.116 105.085 272.084 105.151 272.091 105.229C272.098 105.306 272.036 105.375 271.954 105.382C271.831 105.393 271.827 105.419 271.931 105.526C272.089 105.688 272.171 105.683 272.292 105.507ZM278.308 104.896C278.209 104.812 278.2 104.823 278.261 104.953C278.304 105.042 278.36 105.09 278.386 105.058C278.412 105.027 278.377 104.954 278.308 104.896ZM270.524 105.437C270.503 105.216 270.488 105.204 270.419 105.352C270.375 105.447 270.368 105.565 270.404 105.613C270.513 105.762 270.551 105.706 270.524 105.437ZM273.464 104.961C273.454 104.855 273.407 104.798 273.359 104.834C273.311 104.87 273.277 104.961 273.284 105.035C273.29 105.11 273.337 105.167 273.388 105.162C273.439 105.158 273.473 105.067 273.464 104.961ZM275.576 104.64C275.569 104.563 275.502 104.505 275.428 104.511C275.345 104.519 275.318 104.576 275.358 104.659C275.394 104.734 275.46 104.792 275.506 104.788C275.551 104.784 275.583 104.718 275.576 104.64ZM202.113 110.593C202.042 110.52 201.967 110.481 201.945 110.507C201.887 110.577 202.033 110.744 202.144 110.734C202.206 110.729 202.194 110.675 202.113 110.593ZM202.881 109.777C202.879 109.755 202.834 109.714 202.78 109.686C202.727 109.659 202.687 109.681 202.692 109.736C202.696 109.79 202.742 109.831 202.793 109.827C202.843 109.822 202.883 109.8 202.881 109.777Z" fill="#2D264B"/>
</svg>
