<svg width="48" height="48" viewBox="0 0 48 48" fill="none" xmlns="http://www.w3.org/2000/svg">
<rect width="48" height="48" rx="24" fill="#F6F6F6"/>
<path d="M34.4276 25.2472L35.418 25.385V25.385L34.4276 25.2472ZM34.0079 28.2632L33.0174 28.1254L34.0079 28.2632ZM13.9923 28.2632L14.9827 28.1254L13.9923 28.2632ZM13.5726 25.2472L12.5821 25.385L13.5726 25.2472ZM19.4939 39.5789L19.1051 40.5003L19.4939 39.5789ZM15.1602 34.4965L16.0989 34.1517L15.1602 34.4965ZM32.8399 34.4965L33.7786 34.8414L32.8399 34.4965ZM28.5062 39.5789L28.1175 38.6576L28.5062 39.5789ZM13.7956 19.1054C13.7434 18.5556 13.2553 18.1522 12.7055 18.2045C12.1557 18.2567 11.7523 18.7448 11.8046 19.2946L13.7956 19.1054ZM36.1956 19.2946C36.2478 18.7448 35.8445 18.2567 35.2947 18.2045C34.7449 18.1522 34.2568 18.5556 34.2046 19.1054L36.1956 19.2946ZM36.8001 17C37.3524 17 37.8001 16.5523 37.8001 16C37.8001 15.4477 37.3524 15 36.8001 15V17ZM11.2001 15C10.6478 15 10.2001 15.4477 10.2001 16C10.2001 16.5523 10.6478 17 11.2001 17V15ZM30.4001 16V17H31.4001V16H30.4001ZM17.6001 16H16.6001V17H17.6001V16ZM33.4371 25.1093L33.0174 28.1254L34.9983 28.4011L35.418 25.385L33.4371 25.1093ZM14.9827 28.1254L14.563 25.1094L12.5821 25.385L13.0018 28.4011L14.9827 28.1254ZM24.0001 39C21.5714 39 20.6493 38.9811 19.8827 38.6576L19.1051 40.5003C20.3342 41.0189 21.751 41 24.0001 41V39ZM13.0018 28.4011C13.4508 31.6272 13.6916 33.3989 14.2216 34.8414L16.0989 34.1517C15.6616 32.9615 15.4461 31.4552 14.9827 28.1254L13.0018 28.4011ZM19.8827 38.6576C18.3418 38.0074 16.9374 36.4341 16.0989 34.1517L14.2216 34.8414C15.1918 37.4821 16.9141 39.5757 19.1051 40.5003L19.8827 38.6576ZM33.0174 28.1254C32.554 31.4552 32.3386 32.9615 31.9013 34.1517L33.7786 34.8414C34.3086 33.3989 34.5493 31.6272 34.9983 28.4011L33.0174 28.1254ZM24.0001 41C26.2491 41 27.6659 41.0189 28.895 40.5003L28.1175 38.6576C27.3509 38.9811 26.4288 39 24.0001 39V41ZM31.9013 34.1517C31.0627 36.4341 29.6584 38.0074 28.1175 38.6576L28.895 40.5003C31.086 39.5757 32.8084 37.4821 33.7786 34.8414L31.9013 34.1517ZM14.563 25.1094C14.2078 22.5573 13.9417 20.6435 13.7956 19.1054L11.8046 19.2946C11.9558 20.8861 12.2293 22.85 12.5821 25.385L14.563 25.1094ZM35.418 25.385C35.7708 22.85 36.0444 20.8861 36.1956 19.2946L34.2046 19.1054C34.0584 20.6435 33.7923 22.5573 33.4371 25.1093L35.418 25.385ZM36.8001 15H11.2001V17H36.8001V15ZM29.4001 14.4V16H31.4001V14.4H29.4001ZM30.4001 15H17.6001V17H30.4001V15ZM18.6001 16V14.4H16.6001V16H18.6001ZM24.0001 9C26.9824 9 29.4001 11.4177 29.4001 14.4H31.4001C31.4001 10.3131 28.087 7 24.0001 7V9ZM24.0001 7C19.9132 7 16.6001 10.3131 16.6001 14.4H18.6001C18.6001 11.4177 21.0177 9 24.0001 9V7Z" fill="#2D264B"/>
<path d="M20 33.8C20 34.3523 20.4477 34.8 21 34.8C21.5523 34.8 22 34.3523 22 33.8H20ZM22 21C22 20.4477 21.5523 20 21 20C20.4477 20 20 20.4477 20 21H22ZM26.4 33.8C26.4 34.3523 26.8477 34.8 27.4 34.8C27.9523 34.8 28.4 34.3523 28.4 33.8H26.4ZM28.4 21C28.4 20.4477 27.9523 20 27.4 20C26.8477 20 26.4 20.4477 26.4 21H28.4ZM22 33.8V21H20V33.8H22ZM28.4 33.8V21H26.4V33.8H28.4Z" fill="#FFE500"/>
</svg>
